<svg id="svg" version="1.1" xmlns="http://www.w3.org/2000/svg" xmlns:xlink="http://www.w3.org/1999/xlink" width="400" height="414.2857142857143" viewBox="0, 0, 400,414.2857142857143"><g id="svgg"><path id="path0" d="M188.824 65.068 C 186.308 65.156,184.058 65.385,183.824 65.577 C 183.591 65.770,181.690 66.056,179.600 66.214 C 177.510 66.371,175.620 66.638,175.400 66.807 C 175.180 66.976,174.190 67.199,173.200 67.304 C 171.011 67.534,166.894 68.382,165.800 68.828 C 165.360 69.007,164.190 69.334,163.200 69.555 C 158.456 70.615,157.372 70.911,157.020 71.242 C 156.811 71.439,156.322 71.600,155.934 71.600 C 155.545 71.600,154.636 71.852,153.914 72.160 C 153.191 72.468,151.250 73.213,149.600 73.814 C 145.016 75.487,140.095 77.636,137.045 79.299 C 135.529 80.124,134.066 80.800,133.794 80.800 C 133.521 80.800,133.074 81.070,132.800 81.400 C 132.526 81.730,132.054 82.000,131.751 82.000 C 131.448 82.000,131.200 82.180,131.200 82.400 C 131.200 82.620,130.943 82.800,130.629 82.800 C 130.314 82.800,129.812 83.025,129.512 83.300 C 128.856 83.901,127.624 84.706,126.800 85.071 C 125.013 85.864,114.838 93.251,111.944 95.858 C 106.596 100.672,100.359 106.753,99.470 108.019 C 99.212 108.388,98.145 109.628,97.100 110.775 C 96.055 111.923,95.199 112.983,95.198 113.131 C 95.197 113.279,94.683 113.947,94.056 114.617 C 93.429 115.286,92.455 116.562,91.893 117.453 C 91.331 118.343,90.601 119.342,90.271 119.671 C 89.942 120.001,89.080 121.245,88.356 122.435 C 87.632 123.626,86.928 124.690,86.791 124.800 C 86.654 124.910,86.418 125.270,86.266 125.600 C 86.115 125.930,85.643 126.740,85.217 127.400 C 84.792 128.060,84.029 129.410,83.522 130.400 C 83.015 131.390,82.511 132.290,82.400 132.400 C 82.078 132.722,78.198 140.765,76.998 143.600 C 76.393 145.030,75.651 146.767,75.349 147.460 C 75.047 148.154,74.800 148.973,74.800 149.280 C 74.800 149.588,74.657 150.011,74.482 150.220 C 74.307 150.429,73.840 151.680,73.443 153.000 C 73.046 154.320,72.469 155.991,72.161 156.714 C 71.852 157.436,71.600 158.460,71.600 158.990 C 71.600 159.520,71.430 160.058,71.223 160.186 C 71.016 160.314,70.723 161.269,70.573 162.309 C 70.422 163.349,70.166 164.380,70.003 164.600 C 69.840 164.820,69.581 165.986,69.428 167.190 C 69.274 168.395,69.005 169.565,68.828 169.790 C 68.652 170.016,68.408 171.230,68.284 172.488 C 68.161 173.747,67.878 175.367,67.656 176.088 C 66.978 178.289,65.510 195.452,65.508 201.200 C 65.507 204.576,66.239 215.235,66.771 219.592 C 67.683 227.054,68.422 231.702,68.818 232.465 C 69.008 232.831,69.285 234.091,69.435 235.265 C 69.584 236.439,69.838 237.580,69.999 237.800 C 70.159 238.020,70.409 238.973,70.553 239.917 C 70.697 240.862,70.975 241.942,71.171 242.317 C 71.366 242.693,71.883 244.267,72.318 245.815 C 74.304 252.883,79.298 264.324,84.184 273.000 C 91.223 285.497,104.383 300.396,116.160 309.200 C 117.190 309.970,118.251 310.789,118.516 311.021 C 121.680 313.774,140.253 324.400,141.902 324.400 C 142.060 324.400,143.091 324.829,144.194 325.353 C 145.297 325.877,147.010 326.619,148.000 327.001 C 148.990 327.383,150.160 327.841,150.600 328.019 C 160.431 331.995,179.374 336.010,192.400 336.879 C 214.839 338.376,237.652 336.099,253.519 330.777 C 255.433 330.135,257.405 329.607,257.900 329.605 C 258.395 329.602,258.800 329.434,258.800 329.232 C 258.800 329.029,259.379 328.736,260.087 328.581 C 260.795 328.425,261.650 328.161,261.987 327.993 C 262.738 327.620,264.862 326.685,267.000 325.787 C 270.610 324.271,280.466 319.162,281.600 318.220 C 281.930 317.946,282.470 317.625,282.800 317.508 C 283.130 317.390,284.806 316.283,286.524 315.047 C 288.243 313.811,289.818 312.800,290.024 312.800 C 290.231 312.800,290.400 312.651,290.400 312.468 C 290.400 312.285,291.255 311.526,292.300 310.782 C 293.345 310.038,294.406 309.242,294.657 309.014 C 302.271 302.120,309.691 294.661,311.910 291.671 C 313.019 290.177,316.156 286.249,316.700 285.673 C 317.785 284.523,317.485 284.307,304.095 276.600 C 303.239 276.107,298.849 273.547,297.922 273.000 C 297.550 272.780,296.470 272.175,295.522 271.656 C 294.575 271.137,293.710 270.597,293.600 270.456 C 293.490 270.315,292.530 269.749,291.466 269.200 C 289.032 267.942,288.481 267.614,286.930 266.500 C 286.241 266.005,285.575 265.600,285.452 265.600 C 285.158 265.600,277.748 261.301,267.600 255.243 C 266.830 254.783,265.930 254.282,265.600 254.130 C 264.763 253.742,261.043 251.488,260.800 251.220 C 260.510 250.900,256.970 249.200,256.594 249.200 C 256.419 249.200,255.607 249.875,254.791 250.700 C 252.155 253.365,250.045 255.200,249.617 255.200 C 249.388 255.200,249.200 255.338,249.200 255.506 C 249.200 256.237,238.954 261.970,235.000 263.452 C 228.898 265.738,223.597 267.131,219.000 267.656 C 208.676 268.836,206.328 268.835,194.000 267.647 C 173.956 265.715,157.197 255.031,149.371 239.197 C 148.268 236.965,146.401 232.505,146.400 232.101 C 146.400 232.046,187.118 231.956,236.884 231.901 L 327.367 231.800 327.866 229.400 C 328.141 228.080,328.373 226.223,328.383 225.274 C 328.392 224.324,328.587 223.199,328.814 222.773 C 330.456 219.705,330.472 182.724,328.833 179.662 C 328.595 179.217,328.399 178.166,328.399 177.326 C 328.395 172.058,323.254 152.783,319.761 144.940 C 319.453 144.246,319.200 143.545,319.200 143.382 C 319.200 143.081,317.245 138.862,315.223 134.800 C 306.534 117.341,294.318 102.328,279.463 90.848 C 275.511 87.794,269.883 84.000,269.306 84.000 C 269.064 84.000,268.807 83.856,268.733 83.679 C 268.096 82.143,245.947 71.606,243.346 71.601 C 243.096 71.600,242.376 71.331,241.746 71.002 C 241.116 70.674,240.206 70.404,239.724 70.402 C 239.242 70.401,238.749 70.241,238.629 70.046 C 238.508 69.852,237.571 69.567,236.546 69.413 C 235.521 69.259,234.394 68.987,234.041 68.809 C 233.237 68.402,229.574 67.609,227.200 67.328 C 226.210 67.210,225.220 66.976,225.000 66.808 C 224.780 66.639,223.070 66.372,221.200 66.215 C 219.330 66.058,217.606 65.769,217.369 65.573 C 216.897 65.182,196.116 64.815,188.824 65.068 M209.379 133.566 C 209.504 133.767,210.957 134.059,212.608 134.214 C 214.260 134.368,215.710 134.654,215.829 134.848 C 215.949 135.041,216.504 135.200,217.063 135.200 C 217.622 135.200,218.646 135.442,219.340 135.739 C 220.033 136.035,221.320 136.506,222.200 136.787 C 235.882 141.145,248.415 154.414,253.382 169.800 C 254.021 171.780,254.621 173.625,254.715 173.900 C 254.851 174.298,243.695 174.400,199.811 174.400 L 144.736 174.400 145.019 173.113 C 145.175 172.405,145.449 171.550,145.630 171.213 C 145.810 170.876,146.341 169.430,146.810 168.000 C 148.221 163.696,152.058 156.536,154.874 152.953 C 158.729 148.047,169.143 139.600,171.335 139.600 C 171.701 139.600,172.000 139.432,172.000 139.227 C 172.000 139.022,172.405 138.737,172.900 138.595 C 173.395 138.453,174.430 138.069,175.200 137.741 C 178.836 136.195,181.932 135.195,183.076 135.198 C 183.558 135.199,184.051 135.042,184.170 134.848 C 184.290 134.654,185.920 134.368,187.793 134.212 C 189.665 134.056,191.298 133.765,191.422 133.564 C 191.718 133.086,209.084 133.088,209.379 133.566 " stroke="none" fill="#fbfbfb" fill-rule="evenodd"></path><path id="path1" d="M180.000 0.395 C 178.570 0.567,176.005 0.728,174.300 0.753 C 172.595 0.779,171.200 0.953,171.200 1.141 C 171.200 1.329,169.630 1.603,167.711 1.750 C 165.792 1.898,164.046 2.194,163.831 2.409 C 163.616 2.624,162.801 2.803,162.020 2.806 C 161.239 2.809,159.880 3.071,159.000 3.388 C 158.120 3.705,156.746 3.973,155.946 3.982 C 155.146 3.992,153.976 4.269,153.346 4.598 C 152.716 4.926,151.525 5.196,150.700 5.198 C 149.875 5.199,149.200 5.355,149.200 5.544 C 149.200 5.734,148.314 5.994,147.231 6.122 C 146.147 6.250,144.932 6.535,144.531 6.756 C 144.129 6.976,143.125 7.264,142.300 7.396 C 141.475 7.528,140.800 7.808,140.800 8.018 C 140.800 8.228,140.260 8.400,139.600 8.400 C 138.940 8.400,138.400 8.580,138.400 8.800 C 138.400 9.020,137.873 9.200,137.229 9.200 C 136.584 9.200,135.813 9.444,135.516 9.742 C 135.218 10.039,134.125 10.410,133.087 10.566 C 132.049 10.722,131.200 10.998,131.200 11.180 C 131.200 11.362,130.525 11.628,129.700 11.772 C 128.875 11.915,127.660 12.282,127.000 12.587 C 124.170 13.893,122.839 14.400,122.240 14.400 C 121.888 14.400,121.600 14.538,121.600 14.706 C 121.600 15.077,118.631 16.400,117.797 16.400 C 117.469 16.400,117.200 16.566,117.200 16.768 C 117.200 16.971,116.660 17.255,116.000 17.400 C 115.340 17.545,114.800 17.810,114.800 17.988 C 114.800 18.167,114.305 18.434,113.700 18.581 C 112.035 18.987,109.600 20.112,109.600 20.477 C 109.600 20.655,109.240 20.800,108.800 20.800 C 108.360 20.800,108.000 20.977,108.000 21.192 C 108.000 21.408,107.550 21.698,107.000 21.836 C 106.450 21.974,106.000 22.233,106.000 22.412 C 106.000 22.590,105.460 22.855,104.800 23.000 C 104.140 23.145,103.600 23.429,103.600 23.632 C 103.600 23.834,103.343 24.000,103.029 24.000 C 102.714 24.000,102.211 24.246,101.910 24.547 C 101.609 24.848,100.966 25.220,100.481 25.374 C 99.997 25.528,99.600 25.822,99.600 26.027 C 99.600 26.232,99.240 26.400,98.800 26.400 C 98.360 26.400,98.000 26.560,98.000 26.757 C 98.000 26.953,97.550 27.226,97.000 27.364 C 96.450 27.502,96.000 27.792,96.000 28.008 C 96.000 28.223,95.743 28.400,95.429 28.400 C 95.114 28.400,94.612 28.625,94.312 28.900 C 93.634 29.521,92.502 30.253,91.215 30.903 C 90.673 31.176,89.792 31.805,89.257 32.300 C 88.721 32.795,88.122 33.200,87.925 33.200 C 87.728 33.200,87.349 33.383,87.083 33.607 C 85.209 35.188,84.630 35.600,84.285 35.600 C 84.069 35.600,83.475 36.050,82.965 36.600 C 82.455 37.150,81.851 37.600,81.622 37.600 C 81.393 37.600,80.725 38.140,80.137 38.800 C 79.549 39.460,78.828 40.000,78.534 40.000 C 78.240 40.000,78.000 40.180,78.000 40.400 C 78.000 40.620,77.730 40.800,77.400 40.800 C 77.070 40.800,76.800 41.070,76.800 41.400 C 76.800 41.730,76.569 42.000,76.286 42.000 C 75.712 42.000,73.990 43.355,71.330 45.900 C 70.353 46.835,69.392 47.600,69.195 47.600 C 68.998 47.600,68.039 48.410,67.063 49.400 C 66.087 50.390,65.088 51.200,64.844 51.200 C 64.600 51.200,64.400 51.470,64.400 51.800 C 64.400 52.130,64.130 52.400,63.800 52.400 C 63.470 52.400,63.200 52.670,63.200 53.000 C 63.200 53.330,63.007 53.600,62.771 53.600 C 62.218 53.600,61.200 54.618,61.200 55.171 C 61.200 55.407,60.930 55.600,60.600 55.600 C 60.270 55.600,60.000 55.870,60.000 56.200 C 60.000 56.530,59.730 56.800,59.400 56.800 C 59.070 56.800,58.800 56.993,58.800 57.229 C 58.800 57.782,57.782 58.800,57.229 58.800 C 56.993 58.800,56.800 59.070,56.800 59.400 C 56.800 59.730,56.530 60.000,56.200 60.000 C 55.870 60.000,55.600 60.270,55.600 60.600 C 55.600 60.930,55.407 61.200,55.171 61.200 C 54.694 61.200,53.600 62.189,53.600 62.620 C 53.600 62.773,52.520 63.948,51.200 65.232 C 49.880 66.515,48.800 67.723,48.800 67.916 C 48.800 68.109,48.265 68.792,47.611 69.433 C 46.957 70.075,46.417 70.825,46.411 71.100 C 46.405 71.375,46.175 71.607,45.900 71.615 C 45.376 71.631,43.200 74.524,43.200 75.205 C 43.200 75.422,42.930 75.600,42.600 75.600 C 42.270 75.600,42.000 75.855,42.000 76.167 C 42.000 76.478,41.864 76.793,41.697 76.867 C 41.215 77.079,38.800 80.275,38.800 80.702 C 38.800 80.914,38.350 81.426,37.800 81.839 C 37.250 82.252,36.800 82.790,36.800 83.034 C 36.800 83.424,36.407 83.986,34.807 85.883 C 34.583 86.149,34.399 86.509,34.398 86.683 C 34.397 86.857,33.680 87.945,32.804 89.100 C 31.929 90.255,31.345 91.203,31.506 91.206 C 31.668 91.209,31.620 91.344,31.400 91.506 C 30.886 91.884,30.043 93.202,29.742 94.100 C 29.612 94.485,29.348 94.800,29.153 94.800 C 28.959 94.800,28.800 94.997,28.800 95.237 C 28.800 95.477,28.440 96.131,28.000 96.691 C 27.560 97.250,27.200 98.044,27.200 98.454 C 27.200 98.864,27.020 99.200,26.800 99.200 C 26.580 99.200,26.400 99.451,26.400 99.757 C 26.400 100.064,26.130 100.418,25.800 100.545 C 25.470 100.671,25.200 101.051,25.200 101.387 C 25.200 101.724,25.028 102.000,24.818 102.000 C 24.608 102.000,24.320 102.618,24.179 103.372 C 24.037 104.127,23.658 104.846,23.335 104.969 C 23.013 105.093,22.862 105.377,23.000 105.600 C 23.138 105.823,22.969 106.114,22.625 106.246 C 22.281 106.378,22.000 106.922,22.000 107.455 C 22.000 107.989,21.730 108.529,21.400 108.655 C 21.070 108.782,20.800 109.316,20.800 109.843 C 20.800 110.369,20.623 110.800,20.408 110.800 C 20.192 110.800,19.902 111.250,19.764 111.800 C 19.626 112.350,19.373 112.800,19.201 112.800 C 19.029 112.800,18.771 113.430,18.626 114.200 C 18.482 114.970,18.212 115.600,18.026 115.600 C 17.841 115.600,17.571 116.230,17.426 117.000 C 17.282 117.770,17.008 118.400,16.817 118.400 C 16.626 118.400,16.342 119.162,16.184 120.093 C 16.027 121.024,15.664 121.969,15.377 122.193 C 15.090 122.417,14.798 122.960,14.728 123.400 C 14.657 123.840,14.510 124.290,14.400 124.400 C 13.868 124.932,13.228 126.445,12.983 127.751 C 12.833 128.548,12.571 129.200,12.400 129.200 C 12.229 129.200,11.964 129.866,11.811 130.680 C 11.659 131.493,11.279 132.523,10.967 132.969 C 10.655 133.414,10.400 134.353,10.400 135.056 C 10.400 135.758,10.208 136.397,9.974 136.475 C 9.740 136.553,9.446 137.378,9.322 138.309 C 9.197 139.239,8.938 140.000,8.747 140.000 C 8.556 140.000,8.400 140.525,8.400 141.167 C 8.400 141.808,8.216 142.395,7.991 142.470 C 7.765 142.545,7.478 143.325,7.352 144.203 C 7.227 145.081,6.871 146.367,6.562 147.060 C 6.253 147.754,6.000 148.969,6.000 149.760 C 6.000 150.552,5.845 151.200,5.656 151.200 C 5.467 151.200,5.208 152.202,5.082 153.428 C 4.956 154.653,4.685 155.868,4.480 156.128 C 4.276 156.387,4.003 157.677,3.873 158.994 C 3.744 160.310,3.450 161.450,3.219 161.527 C 2.989 161.604,2.800 162.627,2.800 163.800 C 2.800 164.973,2.621 165.993,2.402 166.067 C 2.184 166.140,1.887 167.865,1.743 169.900 C 1.598 171.935,1.345 173.600,1.179 173.600 C -0.257 173.600,-0.243 222.609,1.195 228.400 C 1.511 229.676,2.074 233.574,2.654 238.500 C 2.777 239.545,3.029 240.400,3.214 240.400 C 3.400 240.400,3.676 241.660,3.827 243.200 C 3.979 244.740,4.247 246.000,4.423 246.000 C 4.599 246.000,4.854 247.035,4.991 248.300 C 5.127 249.565,5.410 250.913,5.620 251.295 C 5.829 251.677,6.000 252.369,6.000 252.834 C 6.000 253.299,6.253 254.246,6.562 254.940 C 6.871 255.633,7.227 256.919,7.352 257.797 C 7.478 258.675,7.765 259.455,7.991 259.530 C 8.216 259.605,8.400 260.282,8.400 261.033 C 8.400 261.785,8.556 262.400,8.747 262.400 C 8.938 262.400,9.195 263.146,9.317 264.058 C 9.439 264.969,9.705 265.824,9.908 265.958 C 10.110 266.091,10.390 266.919,10.529 267.797 C 10.668 268.675,10.965 269.455,11.191 269.530 C 11.416 269.605,11.601 270.057,11.602 270.533 C 11.604 271.010,11.867 271.903,12.188 272.517 C 12.508 273.131,12.887 274.256,13.030 275.017 C 13.172 275.778,13.405 276.400,13.547 276.400 C 13.858 276.400,14.655 278.183,15.021 279.700 C 15.167 280.305,15.433 280.800,15.612 280.800 C 15.790 280.800,16.058 281.352,16.206 282.027 C 16.354 282.702,16.727 283.737,17.035 284.327 C 17.343 284.917,17.596 285.693,17.598 286.051 C 17.599 286.409,17.870 286.926,18.200 287.200 C 18.530 287.474,18.800 287.918,18.800 288.188 C 18.800 288.837,19.951 291.122,20.425 291.416 C 20.631 291.543,20.800 291.919,20.800 292.252 C 20.800 292.585,21.070 293.127,21.400 293.457 C 21.730 293.787,22.000 294.404,22.000 294.829 C 22.000 295.253,22.180 295.600,22.400 295.600 C 22.620 295.600,22.800 295.857,22.800 296.171 C 22.800 296.486,23.025 296.981,23.300 297.271 C 23.575 297.562,24.212 298.610,24.715 299.600 C 25.792 301.719,26.505 302.923,26.846 303.200 C 26.981 303.310,27.219 303.805,27.373 304.300 C 27.528 304.795,27.822 305.200,28.027 305.200 C 28.232 305.200,28.400 305.562,28.400 306.004 C 28.400 306.446,28.760 307.116,29.200 307.493 C 29.640 307.870,30.000 308.498,30.000 308.889 C 30.000 309.280,30.139 309.600,30.309 309.600 C 30.479 309.600,30.957 310.230,31.372 311.000 C 31.787 311.770,32.278 312.400,32.463 312.400 C 32.648 312.400,32.800 312.672,32.800 313.004 C 32.800 313.336,33.160 313.916,33.600 314.293 C 34.040 314.670,34.400 315.279,34.400 315.646 C 34.400 316.014,34.670 316.418,35.000 316.545 C 35.330 316.671,35.600 317.051,35.600 317.387 C 35.600 317.724,35.768 318.000,35.973 318.000 C 36.178 318.000,36.472 318.398,36.627 318.885 C 36.781 319.371,37.334 320.105,37.854 320.514 C 38.374 320.923,38.800 321.515,38.800 321.829 C 38.800 322.143,38.968 322.400,39.173 322.400 C 39.378 322.400,39.658 322.754,39.796 323.187 C 40.023 323.904,40.992 325.092,44.100 328.467 C 44.705 329.124,45.200 329.738,45.200 329.831 C 45.200 329.984,45.588 330.439,47.419 332.434 C 47.738 332.782,48.000 333.206,48.000 333.375 C 48.000 333.696,49.415 335.257,53.300 339.223 C 54.565 340.514,55.600 341.663,55.600 341.775 C 55.600 342.272,62.088 348.400,62.614 348.400 C 62.936 348.400,63.200 348.670,63.200 349.000 C 63.200 349.330,63.470 349.600,63.800 349.600 C 64.130 349.600,64.400 349.761,64.400 349.959 C 64.400 350.415,66.479 352.800,66.876 352.800 C 67.039 352.800,67.787 353.385,68.538 354.100 C 70.416 355.890,71.951 357.145,72.846 357.624 C 73.260 357.846,73.600 358.292,73.600 358.614 C 73.600 358.936,73.872 359.200,74.204 359.200 C 74.536 359.200,75.116 359.560,75.493 360.000 C 75.870 360.440,76.408 360.800,76.689 360.800 C 76.970 360.800,77.200 360.977,77.200 361.192 C 77.200 361.408,77.650 361.698,78.200 361.836 C 78.750 361.974,79.200 362.341,79.200 362.652 C 79.200 362.963,79.650 363.422,80.200 363.673 C 80.750 363.923,81.200 364.280,81.200 364.464 C 81.200 364.649,81.442 364.800,81.738 364.800 C 82.034 364.800,82.602 365.160,83.000 365.600 C 83.398 366.040,83.884 366.400,84.079 366.400 C 84.275 366.400,84.922 366.856,85.517 367.412 C 86.113 367.969,87.004 368.529,87.497 368.655 C 87.991 368.782,88.295 369.046,88.174 369.243 C 88.052 369.439,88.224 369.600,88.557 369.600 C 88.889 369.600,89.304 369.835,89.480 370.122 C 89.656 370.408,90.475 370.957,91.300 371.340 C 92.125 371.724,92.800 372.209,92.800 372.419 C 92.800 372.628,93.002 372.800,93.249 372.800 C 93.496 372.800,95.033 373.610,96.664 374.600 C 98.294 375.590,99.802 376.400,100.014 376.400 C 100.226 376.400,100.400 376.548,100.400 376.729 C 100.400 377.047,103.593 378.800,104.172 378.800 C 104.329 378.800,104.727 379.070,105.057 379.400 C 105.387 379.730,105.985 380.000,106.386 380.000 C 106.787 380.000,107.211 380.252,107.329 380.560 C 107.447 380.868,108.227 381.345,109.061 381.620 C 109.895 381.895,110.821 382.364,111.118 382.660 C 111.414 382.957,111.982 383.200,112.380 383.200 C 112.777 383.200,113.326 383.470,113.600 383.800 C 113.874 384.130,114.526 384.400,115.049 384.400 C 115.572 384.400,116.000 384.566,116.000 384.768 C 116.000 384.971,116.540 385.255,117.200 385.400 C 117.860 385.545,118.400 385.806,118.400 385.981 C 118.400 386.155,119.120 386.413,120.000 386.554 C 120.880 386.694,121.600 386.987,121.600 387.205 C 121.600 387.422,121.883 387.600,122.229 387.600 C 122.574 387.600,123.127 387.870,123.457 388.200 C 123.787 388.530,124.394 388.800,124.805 388.800 C 125.216 388.800,125.664 388.980,125.800 389.200 C 125.936 389.420,126.447 389.600,126.935 389.600 C 127.423 389.600,128.177 389.847,128.611 390.149 C 129.045 390.451,129.985 390.825,130.700 390.981 C 131.415 391.136,132.000 391.412,132.000 391.593 C 132.000 391.773,133.080 392.047,134.400 392.200 C 135.720 392.353,136.800 392.641,136.800 392.839 C 136.800 393.038,137.160 393.200,137.600 393.200 C 138.040 393.200,138.400 393.356,138.400 393.547 C 138.400 393.738,139.146 393.995,140.058 394.117 C 140.969 394.239,141.824 394.506,141.958 394.709 C 142.091 394.912,142.993 395.202,143.962 395.354 C 144.931 395.505,145.918 395.749,146.155 395.896 C 146.626 396.187,146.845 396.231,149.800 396.639 C 150.900 396.791,151.904 397.074,152.030 397.268 C 152.157 397.462,153.237 397.734,154.430 397.872 C 155.624 398.010,156.690 398.237,156.800 398.377 C 157.098 398.758,164.029 400.000,165.855 400.000 C 166.727 400.000,167.636 400.196,167.875 400.435 C 168.115 400.675,170.176 400.971,172.455 401.093 C 174.796 401.219,176.724 401.509,176.885 401.758 C 177.291 402.387,218.049 402.382,218.838 401.753 C 219.147 401.507,221.265 401.207,223.545 401.088 C 225.824 400.968,227.885 400.675,228.125 400.435 C 228.364 400.196,229.433 400.000,230.501 400.000 C 232.460 400.000,237.522 399.049,239.000 398.403 C 239.440 398.210,240.835 397.938,242.100 397.798 C 243.365 397.657,244.400 397.398,244.400 397.222 C 244.400 397.046,245.345 396.783,246.500 396.638 C 249.367 396.278,249.748 396.203,250.245 395.896 C 250.482 395.749,251.469 395.506,252.438 395.356 C 253.407 395.205,254.555 394.838,254.989 394.541 C 255.423 394.243,256.278 394.000,256.889 394.000 C 257.500 394.000,258.000 393.820,258.000 393.600 C 258.000 393.380,258.349 393.200,258.776 393.200 C 259.203 393.200,259.654 393.036,259.778 392.835 C 259.903 392.634,260.738 392.346,261.635 392.194 C 262.532 392.043,263.746 391.668,264.333 391.362 C 264.920 391.056,265.805 390.804,266.300 390.802 C 266.795 390.801,267.200 390.636,267.200 390.435 C 267.200 390.234,267.920 389.949,268.800 389.800 C 269.680 389.651,270.400 389.366,270.400 389.165 C 270.400 388.964,270.839 388.800,271.376 388.800 C 271.913 388.800,272.466 388.617,272.604 388.393 C 272.742 388.170,273.023 388.091,273.228 388.217 C 273.432 388.344,273.600 388.257,273.600 388.024 C 273.600 387.791,273.870 387.600,274.200 387.600 C 274.530 387.600,274.800 387.422,274.800 387.205 C 274.800 386.987,275.520 386.694,276.400 386.554 C 277.280 386.413,278.000 386.141,278.000 385.949 C 278.000 385.757,278.347 385.600,278.771 385.600 C 279.196 385.600,279.813 385.330,280.143 385.000 C 280.473 384.670,281.121 384.400,281.584 384.400 C 282.047 384.400,282.529 384.130,282.655 383.800 C 282.782 383.470,283.322 383.200,283.855 383.200 C 284.389 383.200,284.929 382.930,285.055 382.600 C 285.182 382.270,285.633 382.000,286.057 382.000 C 286.760 382.000,288.715 380.982,289.200 380.363 C 289.310 380.223,289.850 379.969,290.400 379.800 C 290.950 379.631,291.491 379.381,291.601 379.246 C 292.004 378.753,295.175 377.200,295.779 377.200 C 296.121 377.200,296.400 377.023,296.400 376.808 C 296.400 376.592,296.850 376.302,297.400 376.164 C 297.950 376.026,298.400 375.753,298.400 375.557 C 298.400 375.360,298.670 375.200,299.000 375.200 C 299.330 375.200,299.600 375.023,299.600 374.808 C 299.600 374.592,300.050 374.302,300.600 374.164 C 301.150 374.026,301.600 373.748,301.600 373.547 C 301.600 373.345,302.005 373.005,302.500 372.791 C 303.541 372.341,304.910 371.511,305.200 371.154 C 305.310 371.019,305.805 370.781,306.300 370.627 C 306.795 370.472,307.200 370.178,307.200 369.973 C 307.200 369.768,307.389 369.600,307.619 369.600 C 307.850 369.600,308.435 369.175,308.919 368.656 C 309.404 368.136,310.205 367.584,310.700 367.429 C 311.195 367.273,311.600 366.978,311.600 366.773 C 311.600 366.568,311.876 366.400,312.213 366.400 C 312.549 366.400,312.929 366.130,313.055 365.800 C 313.182 365.470,313.536 365.200,313.843 365.200 C 314.149 365.200,314.400 364.990,314.400 364.733 C 314.400 364.477,314.505 364.372,314.634 364.501 C 314.872 364.738,315.985 363.897,318.076 361.900 C 318.709 361.295,319.395 360.800,319.600 360.800 C 319.805 360.800,320.509 360.275,321.166 359.633 C 321.822 358.992,322.719 358.353,323.159 358.213 C 323.599 358.073,324.065 357.626,324.194 357.219 C 324.323 356.812,324.872 356.368,325.414 356.232 C 325.956 356.096,326.400 355.718,326.400 355.392 C 326.400 355.067,326.596 354.800,326.835 354.800 C 327.074 354.800,328.252 353.810,329.452 352.600 C 330.652 351.390,331.770 350.400,331.937 350.400 C 332.103 350.400,333.220 349.398,334.419 348.174 C 336.885 345.657,339.461 343.101,341.095 341.550 C 341.703 340.973,342.470 340.093,342.800 339.595 C 343.130 339.097,344.345 337.740,345.500 336.579 C 346.655 335.419,347.600 334.274,347.600 334.035 C 347.600 333.796,347.850 333.600,348.157 333.600 C 348.463 333.600,348.823 333.162,348.958 332.627 C 349.092 332.091,349.552 331.542,349.980 331.406 C 350.409 331.270,350.873 330.799,351.013 330.359 C 351.153 329.919,351.792 329.022,352.433 328.366 C 353.075 327.709,353.600 327.005,353.600 326.800 C 353.600 326.594,354.185 325.812,354.900 325.061 C 357.461 322.370,358.000 321.679,358.000 321.086 C 358.000 320.756,358.270 320.382,358.600 320.255 C 358.930 320.129,359.200 319.827,359.200 319.584 C 359.200 319.341,359.425 318.908,359.700 318.620 C 359.975 318.333,360.470 317.694,360.800 317.200 C 361.130 316.706,361.625 316.067,361.900 315.780 C 362.175 315.492,362.400 315.064,362.400 314.829 C 362.400 314.593,362.577 314.400,362.792 314.400 C 363.008 314.400,363.298 313.950,363.436 313.400 C 363.574 312.850,363.847 312.400,364.043 312.400 C 364.240 312.400,364.400 312.124,364.400 311.787 C 364.400 311.451,364.670 311.071,365.000 310.945 C 365.330 310.818,365.600 310.477,365.600 310.186 C 365.600 309.895,365.846 309.411,366.147 309.110 C 366.448 308.809,366.820 308.166,366.974 307.681 C 367.128 307.197,367.422 306.800,367.627 306.800 C 367.832 306.800,368.000 306.530,368.000 306.200 C 368.000 305.870,368.160 305.600,368.357 305.600 C 368.553 305.600,368.826 305.150,368.964 304.600 C 369.102 304.050,369.392 303.600,369.608 303.600 C 369.823 303.600,370.000 303.240,370.000 302.800 C 370.000 302.360,370.191 302.000,370.424 302.000 C 370.657 302.000,370.736 301.820,370.600 301.600 C 370.464 301.380,370.529 301.200,370.745 301.200 C 370.960 301.200,371.255 300.660,371.400 300.000 C 371.545 299.340,371.826 298.800,372.024 298.800 C 372.222 298.800,372.498 298.350,372.636 297.800 C 372.774 297.250,373.047 296.800,373.243 296.800 C 373.440 296.800,373.600 296.530,373.600 296.200 C 373.600 295.870,373.772 295.600,373.982 295.600 C 374.192 295.600,374.482 294.970,374.626 294.200 C 374.771 293.430,375.015 292.800,375.168 292.800 C 375.322 292.800,375.887 291.812,376.424 290.604 C 376.961 289.396,377.519 288.406,377.665 288.404 C 377.811 288.402,378.051 287.680,378.200 286.800 C 378.349 285.920,378.614 285.200,378.789 285.200 C 379.105 285.200,379.726 283.674,379.643 283.100 C 379.619 282.935,379.780 282.800,380.000 282.800 C 380.220 282.800,380.400 282.350,380.400 281.800 C 380.400 281.250,380.566 280.800,380.768 280.800 C 380.971 280.800,381.255 280.260,381.400 279.600 C 381.545 278.940,381.806 278.400,381.981 278.400 C 382.155 278.400,382.413 277.680,382.554 276.800 C 382.694 275.920,382.964 275.200,383.154 275.200 C 383.343 275.200,383.613 274.480,383.754 273.600 C 383.894 272.720,384.167 272.000,384.359 272.000 C 384.552 272.000,384.819 271.415,384.952 270.700 C 385.086 269.985,385.258 269.220,385.335 269.000 C 385.412 268.780,385.613 268.105,385.781 267.500 C 385.949 266.895,386.247 266.400,386.443 266.400 C 386.640 266.400,386.801 265.905,386.802 265.300 C 386.804 264.695,387.056 263.720,387.362 263.133 C 387.668 262.546,388.043 261.331,388.194 260.433 C 388.346 259.535,388.604 258.800,388.768 258.800 C 388.932 258.800,389.080 258.575,389.097 258.300 C 389.199 256.591,389.775 253.765,390.060 253.578 C 390.245 253.455,390.513 252.240,390.655 250.878 C 390.797 249.515,391.040 248.400,391.194 248.400 C 391.637 248.400,392.378 245.534,392.656 242.751 C 392.795 241.348,393.069 239.997,393.264 239.748 C 393.458 239.500,393.731 237.790,393.870 235.948 C 394.008 234.107,394.290 232.490,394.495 232.355 C 394.701 232.220,394.970 230.240,395.093 227.955 C 395.216 225.670,395.454 223.709,395.622 223.599 C 395.790 223.488,396.060 218.853,396.221 213.299 C 396.382 207.744,396.668 203.200,396.857 203.200 C 397.046 203.200,397.200 202.390,397.200 201.400 C 397.200 200.410,397.047 199.600,396.860 199.600 C 396.673 199.600,396.391 194.968,396.232 189.307 C 396.074 183.647,395.801 178.832,395.627 178.607 C 395.452 178.383,395.200 176.324,395.067 174.031 C 394.934 171.739,394.666 169.759,394.472 169.631 C 394.278 169.504,394.015 167.994,393.888 166.276 C 393.762 164.558,393.488 162.938,393.280 162.676 C 392.889 162.185,392.339 158.632,392.356 156.713 C 392.361 156.115,392.193 155.520,391.983 155.389 C 391.772 155.259,391.600 154.803,391.600 154.376 C 391.600 153.949,391.445 153.600,391.256 153.600 C 391.067 153.600,390.807 152.582,390.678 151.337 C 390.550 150.093,390.281 148.968,390.080 148.837 C 389.880 148.707,389.609 147.790,389.478 146.800 C 389.196 144.668,389.072 144.164,388.461 142.674 C 388.208 142.055,388.000 141.210,388.000 140.798 C 388.000 140.385,387.836 139.946,387.635 139.822 C 387.434 139.697,387.146 138.862,386.994 137.965 C 386.843 137.068,386.468 135.854,386.162 135.267 C 385.856 134.680,385.604 133.896,385.602 133.524 C 385.601 133.152,385.420 132.736,385.200 132.600 C 384.980 132.464,384.800 131.823,384.800 131.176 C 384.800 130.529,384.622 130.000,384.405 130.000 C 384.187 130.000,383.896 129.291,383.758 128.425 C 383.619 127.558,383.257 126.754,382.953 126.637 C 382.649 126.521,382.400 125.969,382.400 125.413 C 382.400 124.856,382.243 124.400,382.051 124.400 C 381.859 124.400,381.587 123.680,381.446 122.800 C 381.306 121.920,381.013 121.200,380.795 121.200 C 380.578 121.200,380.400 120.913,380.400 120.562 C 380.400 119.856,379.173 117.477,378.700 117.267 C 378.535 117.193,378.400 116.788,378.400 116.365 C 378.400 115.943,378.040 114.925,377.600 114.104 C 377.160 113.284,376.800 112.384,376.800 112.106 C 376.800 111.828,376.620 111.600,376.400 111.600 C 376.180 111.600,376.000 111.234,376.000 110.787 C 376.000 110.341,375.730 109.871,375.400 109.745 C 375.070 109.618,374.800 109.156,374.800 108.719 C 374.800 107.979,373.712 105.654,373.154 105.200 C 373.019 105.090,372.781 104.595,372.627 104.100 C 372.472 103.605,372.193 103.200,372.005 103.200 C 371.817 103.200,371.548 102.675,371.407 102.033 C 371.266 101.392,370.892 100.767,370.576 100.646 C 370.259 100.524,370.000 100.146,370.000 99.805 C 370.000 99.463,369.550 98.471,369.000 97.600 C 368.450 96.729,368.000 95.822,368.000 95.584 C 368.000 95.347,367.825 95.261,367.612 95.393 C 367.398 95.525,367.109 95.175,366.968 94.616 C 366.828 94.057,366.565 93.600,366.384 93.600 C 366.202 93.600,365.928 93.203,365.774 92.719 C 365.620 92.234,365.248 91.591,364.947 91.290 C 364.646 90.989,364.400 90.486,364.400 90.171 C 364.400 89.857,364.220 89.600,364.000 89.600 C 363.780 89.600,363.600 89.324,363.600 88.987 C 363.600 88.651,363.330 88.271,363.000 88.145 C 362.670 88.018,362.400 87.707,362.400 87.453 C 362.400 87.199,361.950 86.507,361.400 85.913 C 360.850 85.320,360.400 84.730,360.400 84.601 C 360.400 84.216,358.638 81.824,358.100 81.480 C 357.825 81.304,357.600 80.899,357.600 80.580 C 357.600 80.261,357.432 80.000,357.227 80.000 C 357.022 80.000,356.751 79.685,356.626 79.300 C 356.501 78.915,355.769 77.937,354.999 77.127 C 354.230 76.316,353.600 75.521,353.600 75.360 C 353.600 75.199,353.338 74.782,353.019 74.434 C 351.114 72.358,350.800 71.971,350.800 71.695 C 350.800 71.527,350.350 71.052,349.800 70.639 C 349.250 70.226,348.792 69.688,348.783 69.444 C 348.774 69.200,348.234 68.558,347.583 68.019 C 346.932 67.479,346.400 66.870,346.400 66.665 C 346.400 66.294,345.414 65.334,343.457 63.800 C 342.896 63.360,342.429 62.785,342.418 62.522 C 342.398 61.986,333.026 52.400,332.522 52.399 C 332.345 52.399,331.120 51.324,329.800 50.011 C 328.480 48.698,327.175 47.618,326.900 47.612 C 326.625 47.605,326.400 47.330,326.400 47.000 C 326.400 46.670,326.206 46.400,325.969 46.400 C 325.732 46.400,324.998 45.860,324.338 45.200 C 323.678 44.540,323.017 43.995,322.869 43.989 C 322.721 43.983,321.790 43.261,320.800 42.384 C 318.249 40.125,318.082 40.000,317.617 40.000 C 317.388 40.000,317.200 39.751,317.200 39.447 C 317.200 39.142,316.885 38.788,316.500 38.658 C 315.510 38.326,314.344 37.540,313.365 36.547 C 312.903 36.078,312.137 35.570,311.662 35.420 C 311.188 35.269,310.800 34.978,310.800 34.773 C 310.800 34.568,310.558 34.400,310.262 34.400 C 309.966 34.400,309.398 34.040,309.000 33.600 C 308.602 33.160,308.074 32.800,307.826 32.800 C 307.579 32.800,307.122 32.447,306.811 32.015 C 306.499 31.583,305.740 31.119,305.122 30.983 C 304.505 30.847,304.000 30.583,304.000 30.395 C 304.000 30.207,303.609 29.930,303.131 29.778 C 302.653 29.626,302.068 29.341,301.831 29.144 C 299.842 27.489,299.406 27.200,298.897 27.200 C 298.577 27.200,297.781 26.750,297.127 26.200 C 296.473 25.650,295.682 25.200,295.369 25.200 C 295.056 25.200,294.800 25.023,294.800 24.808 C 294.800 24.592,294.350 24.302,293.800 24.164 C 293.250 24.026,292.800 23.767,292.800 23.588 C 292.800 23.410,292.260 23.145,291.600 23.000 C 290.940 22.855,290.400 22.590,290.400 22.412 C 290.400 22.233,289.950 21.974,289.400 21.836 C 288.850 21.698,288.400 21.408,288.400 21.192 C 288.400 20.977,288.062 20.800,287.649 20.800 C 287.236 20.800,286.674 20.530,286.400 20.200 C 286.126 19.870,285.474 19.600,284.951 19.600 C 284.428 19.600,284.000 19.464,284.000 19.298 C 284.000 18.962,280.341 17.200,279.643 17.200 C 279.399 17.200,279.200 17.022,279.200 16.805 C 279.200 16.587,278.480 16.294,277.600 16.154 C 276.720 16.013,276.000 15.762,276.000 15.596 C 276.000 15.322,275.100 14.934,273.665 14.589 C 273.371 14.518,272.816 14.177,272.433 13.830 C 272.050 13.484,271.481 13.199,271.169 13.198 C 270.856 13.196,270.081 12.924,269.447 12.594 C 268.813 12.263,267.555 11.874,266.652 11.730 C 265.749 11.586,264.770 11.227,264.477 10.934 C 264.183 10.640,263.431 10.400,262.805 10.400 C 262.179 10.400,261.603 10.208,261.525 9.974 C 261.447 9.740,260.622 9.446,259.691 9.322 C 258.761 9.197,258.000 8.938,258.000 8.747 C 258.000 8.556,257.505 8.394,256.900 8.387 C 256.295 8.380,255.451 8.110,255.024 7.787 C 254.596 7.464,253.762 7.200,253.169 7.200 C 252.576 7.200,251.576 6.931,250.946 6.602 C 250.316 6.274,249.316 6.004,248.724 6.002 C 248.132 6.001,247.552 5.846,247.435 5.657 C 247.319 5.469,246.250 5.214,245.061 5.091 C 243.871 4.968,242.561 4.681,242.149 4.454 C 241.737 4.226,240.368 3.928,239.106 3.792 C 237.845 3.655,236.709 3.377,236.583 3.172 C 236.456 2.967,235.478 2.800,234.410 2.800 C 233.341 2.800,232.407 2.623,232.333 2.407 C 232.260 2.191,230.490 1.823,228.400 1.588 C 226.310 1.353,223.070 0.987,221.200 0.774 C 216.905 0.286,183.483 -0.021,180.000 0.395 M215.400 64.851 C 216.720 65.061,219.150 65.387,220.800 65.575 C 224.493 65.994,228.333 66.713,229.400 67.183 C 229.840 67.378,231.100 67.643,232.200 67.774 C 233.300 67.904,234.260 68.189,234.333 68.405 C 234.407 68.622,234.994 68.800,235.639 68.800 C 238.818 68.800,260.436 77.241,261.447 78.877 C 261.557 79.055,261.904 79.200,262.218 79.200 C 262.853 79.200,266.924 81.589,267.133 82.084 C 267.207 82.258,267.603 82.400,268.013 82.400 C 268.424 82.400,268.904 82.627,269.080 82.904 C 269.256 83.181,270.075 83.762,270.900 84.195 C 271.725 84.628,272.400 85.121,272.400 85.291 C 272.400 85.461,272.587 85.600,272.816 85.600 C 273.290 85.600,275.731 87.245,275.933 87.700 C 276.007 87.865,276.245 88.000,276.463 88.000 C 276.830 88.000,280.686 90.969,283.138 93.140 C 283.722 93.658,285.005 94.738,285.988 95.540 C 288.946 97.955,295.520 104.736,299.200 109.168 C 299.970 110.096,301.093 111.427,301.696 112.127 C 302.299 112.827,302.896 113.715,303.023 114.100 C 303.150 114.485,303.422 114.800,303.627 114.800 C 303.832 114.800,304.000 114.971,304.000 115.179 C 304.000 115.388,304.451 116.046,305.003 116.641 C 306.030 117.749,312.402 128.129,313.814 130.994 C 314.246 131.871,314.825 132.828,315.100 133.122 C 315.375 133.417,315.600 133.989,315.600 134.395 C 315.600 134.801,315.735 135.193,315.900 135.267 C 316.065 135.340,316.536 136.120,316.946 137.000 C 317.357 137.880,317.942 139.078,318.246 139.662 C 318.551 140.246,318.800 141.011,318.800 141.362 C 318.800 141.713,318.966 142.000,319.168 142.000 C 319.371 142.000,319.662 142.585,319.814 143.300 C 319.967 144.015,320.228 144.780,320.393 145.000 C 320.559 145.220,321.105 146.570,321.609 148.000 C 322.112 149.430,322.938 151.770,323.445 153.200 C 323.951 154.630,324.374 156.194,324.383 156.676 C 324.392 157.158,324.556 157.649,324.747 157.768 C 324.939 157.886,325.212 158.714,325.355 159.609 C 325.498 160.503,325.777 161.542,325.974 161.917 C 327.048 163.960,329.731 180.479,330.437 189.400 C 330.957 195.981,330.710 212.636,330.007 218.400 C 329.493 222.607,327.988 231.694,327.738 232.100 C 327.636 232.265,286.954 232.400,237.334 232.400 C 151.565 232.400,147.129 232.435,147.409 233.100 C 147.570 233.485,147.791 234.208,147.899 234.706 C 148.007 235.204,148.254 235.710,148.448 235.830 C 148.641 235.949,148.800 236.375,148.800 236.775 C 148.800 237.175,149.052 237.711,149.361 237.967 C 149.669 238.223,150.040 238.906,150.185 239.485 C 150.863 242.186,161.859 255.600,163.395 255.600 C 163.554 255.600,164.341 256.115,165.142 256.745 C 165.944 257.375,167.230 258.210,168.000 258.601 C 168.770 258.992,169.490 259.422,169.600 259.556 C 170.089 260.153,176.076 262.800,176.937 262.800 C 177.276 262.800,177.645 262.949,177.757 263.131 C 177.870 263.313,179.095 263.780,180.481 264.168 C 181.866 264.557,183.309 265.036,183.686 265.232 C 184.064 265.429,185.414 265.707,186.686 265.849 C 187.959 265.992,189.180 266.248,189.400 266.417 C 189.620 266.587,191.649 266.856,193.909 267.015 C 196.168 267.174,198.114 267.461,198.232 267.652 C 198.512 268.104,215.086 268.108,215.365 267.656 C 215.482 267.467,217.133 267.186,219.034 267.031 C 220.934 266.877,222.784 266.591,223.145 266.396 C 223.505 266.201,224.651 265.931,225.691 265.797 C 226.731 265.663,227.686 265.384,227.814 265.177 C 227.942 264.970,228.442 264.799,228.924 264.797 C 230.634 264.792,242.954 259.581,244.000 258.421 C 244.110 258.299,244.692 257.945,245.293 257.635 C 245.895 257.326,246.742 256.741,247.177 256.336 C 247.611 255.931,248.154 255.600,248.383 255.600 C 248.612 255.600,248.800 255.432,248.800 255.227 C 248.800 255.022,249.149 254.743,249.575 254.608 C 250.002 254.472,251.714 253.020,253.380 251.381 C 256.925 247.893,256.384 248.031,259.400 249.850 C 260.720 250.646,263.240 252.111,265.000 253.106 C 266.760 254.101,268.290 255.028,268.400 255.166 C 268.510 255.304,269.050 255.634,269.600 255.899 C 270.150 256.165,271.320 256.836,272.200 257.392 C 273.080 257.947,274.295 258.598,274.900 258.840 C 275.505 259.081,276.000 259.441,276.000 259.639 C 276.000 259.838,276.229 260.000,276.509 260.000 C 276.789 260.000,277.975 260.630,279.144 261.400 C 280.313 262.170,281.347 262.800,281.441 262.800 C 281.639 262.800,285.570 265.074,287.135 266.094 C 287.721 266.476,288.560 266.966,289.000 267.183 C 289.440 267.400,290.700 268.124,291.800 268.792 C 292.900 269.461,294.115 270.117,294.500 270.250 C 294.885 270.384,295.200 270.652,295.200 270.847 C 295.200 271.041,295.457 271.200,295.771 271.200 C 296.086 271.200,296.583 271.425,296.878 271.700 C 297.172 271.975,298.129 272.560,299.006 273.000 C 299.882 273.440,301.626 274.475,302.880 275.300 C 304.135 276.125,305.258 276.800,305.376 276.800 C 305.494 276.800,307.527 277.941,309.895 279.337 C 312.263 280.732,314.957 282.290,315.881 282.800 C 317.944 283.936,318.178 284.466,317.178 285.738 C 316.750 286.281,316.400 286.833,316.400 286.963 C 316.400 287.093,316.085 287.533,315.700 287.940 C 315.315 288.347,314.730 289.022,314.399 289.440 C 311.443 293.181,310.265 294.566,308.005 296.960 C 306.572 298.477,303.793 301.267,301.830 303.160 C 299.866 305.052,297.796 307.050,297.228 307.600 C 296.661 308.150,295.815 308.870,295.347 309.200 C 294.880 309.530,293.030 310.925,291.237 312.300 C 289.444 313.675,287.817 314.800,287.622 314.800 C 287.426 314.800,287.207 314.942,287.133 315.115 C 287.060 315.288,285.740 316.234,284.200 317.216 C 280.426 319.623,280.076 319.830,278.000 320.885 C 277.010 321.388,275.962 322.025,275.671 322.300 C 275.381 322.575,274.796 322.800,274.371 322.800 C 273.947 322.800,273.600 322.943,273.600 323.117 C 273.600 323.292,272.295 324.030,270.700 324.758 C 269.105 325.486,267.322 326.333,266.738 326.641 C 266.154 326.948,265.299 327.200,264.838 327.200 C 264.377 327.200,264.000 327.380,264.000 327.600 C 264.000 327.820,263.736 328.000,263.414 328.000 C 263.091 328.000,262.236 328.255,261.514 328.567 C 260.791 328.878,259.543 329.418,258.740 329.767 C 257.936 330.115,256.912 330.400,256.463 330.400 C 256.014 330.400,255.549 330.560,255.428 330.755 C 255.307 330.950,254.532 331.236,253.704 331.390 C 252.877 331.545,252.020 331.811,251.800 331.981 C 251.580 332.151,250.627 332.409,249.683 332.553 C 248.738 332.697,247.658 332.972,247.283 333.163 C 246.558 333.532,244.994 333.857,236.416 335.421 C 217.381 338.889,195.202 338.796,175.349 335.164 C 166.539 333.552,165.801 333.400,165.362 333.114 C 165.121 332.958,164.131 332.708,163.162 332.560 C 162.193 332.412,161.220 332.159,161.000 331.998 C 160.780 331.836,159.880 331.575,159.000 331.416 C 158.120 331.258,157.220 330.989,157.000 330.818 C 156.780 330.647,156.150 330.411,155.600 330.293 C 154.385 330.032,149.238 328.152,148.387 327.658 C 148.050 327.462,147.195 327.175,146.487 327.019 C 145.779 326.864,145.200 326.571,145.200 326.368 C 145.200 326.166,144.905 326.000,144.545 326.000 C 144.010 326.000,138.946 323.700,133.600 321.030 C 131.213 319.838,127.669 317.823,126.080 316.756 C 125.134 316.120,124.271 315.600,124.163 315.600 C 124.055 315.600,123.749 315.417,123.483 315.192 C 123.217 314.968,121.470 313.697,119.600 312.368 C 117.730 311.039,116.140 309.783,116.067 309.576 C 115.993 309.369,115.723 309.200,115.467 309.200 C 115.210 309.200,114.333 308.615,113.517 307.900 C 112.701 307.185,111.261 305.974,110.317 305.209 C 108.034 303.360,98.000 293.521,98.000 293.132 C 98.000 292.964,97.415 292.222,96.700 291.483 C 95.071 289.800,92.651 286.821,92.441 286.239 C 92.354 285.998,92.039 285.656,91.741 285.480 C 91.444 285.304,91.200 284.914,91.200 284.613 C 91.200 284.313,91.048 284.007,90.862 283.933 C 90.382 283.744,86.800 278.532,86.800 278.023 C 86.800 277.790,86.649 277.600,86.464 277.600 C 86.280 277.600,85.926 277.195,85.678 276.700 C 85.430 276.205,84.693 274.900,84.041 273.800 C 83.060 272.146,81.576 269.430,79.563 265.600 C 78.544 263.662,75.997 257.822,75.201 255.600 C 74.689 254.170,74.140 252.820,73.981 252.600 C 73.822 252.380,73.565 251.603,73.408 250.873 C 73.252 250.143,72.873 249.063,72.565 248.473 C 72.257 247.883,72.004 247.083,72.002 246.695 C 72.001 246.307,71.821 245.677,71.603 245.295 C 71.259 244.692,70.505 242.056,69.174 236.800 C 68.979 236.030,68.815 234.830,68.810 234.133 C 68.804 233.437,68.617 232.806,68.394 232.731 C 68.171 232.657,67.876 231.337,67.739 229.798 C 67.602 228.259,67.335 226.801,67.145 226.559 C 66.955 226.316,66.696 224.426,66.568 222.359 C 66.441 220.291,66.183 218.240,65.994 217.800 C 65.647 216.990,65.106 206.869,65.097 201.000 C 65.086 194.223,66.476 177.267,67.162 175.800 C 67.368 175.360,67.642 173.838,67.771 172.418 C 67.900 170.997,68.184 169.656,68.402 169.438 C 68.621 169.219,68.800 168.518,68.800 167.880 C 68.800 166.688,70.364 160.426,71.337 157.721 C 71.638 156.884,72.211 155.120,72.611 153.800 C 74.204 148.544,76.227 143.589,79.472 137.000 C 81.510 132.862,82.024 131.864,82.875 130.400 C 83.066 130.070,83.329 129.485,83.458 129.100 C 83.588 128.715,83.833 128.400,84.003 128.400 C 84.174 128.400,84.426 127.950,84.564 127.400 C 84.702 126.850,84.992 126.400,85.208 126.400 C 85.423 126.400,85.600 126.237,85.600 126.037 C 85.600 125.676,88.771 120.637,89.577 119.717 C 89.809 119.451,90.000 119.046,90.000 118.817 C 90.000 118.588,90.175 118.400,90.390 118.400 C 90.604 118.400,91.050 117.877,91.380 117.238 C 91.711 116.599,92.211 115.834,92.491 115.538 C 92.771 115.242,94.070 113.650,95.377 112.000 C 98.439 108.135,109.721 96.876,113.600 93.813 C 115.250 92.510,116.784 91.255,117.009 91.022 C 117.234 90.790,117.709 90.420,118.064 90.200 C 118.419 89.980,120.755 88.436,123.255 86.768 C 125.755 85.100,128.070 83.613,128.400 83.464 C 128.730 83.314,129.540 82.831,130.200 82.391 C 130.860 81.951,131.715 81.482,132.100 81.349 C 132.485 81.216,132.800 80.967,132.800 80.797 C 132.800 80.626,133.230 80.379,133.755 80.247 C 134.280 80.115,135.801 79.391,137.134 78.637 C 138.467 77.884,139.960 77.140,140.452 76.983 C 140.944 76.827,142.150 76.272,143.133 75.750 C 144.115 75.227,145.117 74.799,145.360 74.798 C 145.602 74.796,146.304 74.532,146.920 74.211 C 147.536 73.889,148.616 73.458,149.320 73.252 C 150.024 73.046,152.130 72.340,154.000 71.683 C 159.006 69.924,161.237 69.266,163.223 68.962 C 164.200 68.813,165.198 68.536,165.440 68.346 C 165.683 68.156,166.763 67.897,167.840 67.769 C 168.918 67.641,170.160 67.383,170.600 67.195 C 171.956 66.617,178.478 65.598,180.820 65.599 C 182.041 65.600,183.211 65.431,183.420 65.224 C 184.201 64.451,210.939 64.139,215.400 64.851 M190.400 134.319 C 187.430 134.694,184.803 135.128,184.562 135.285 C 184.321 135.442,183.331 135.692,182.362 135.840 C 181.393 135.988,180.420 136.237,180.200 136.394 C 179.980 136.550,178.810 136.992,177.600 137.377 C 171.555 139.296,162.994 144.730,159.049 149.151 C 158.582 149.675,157.660 150.698,157.000 151.426 C 155.140 153.477,154.800 153.934,154.800 154.383 C 154.800 154.612,154.638 154.800,154.440 154.800 C 154.072 154.800,153.036 156.381,151.295 159.600 C 150.760 160.590,150.077 161.850,149.777 162.400 C 149.166 163.523,147.985 166.291,147.216 168.400 C 146.936 169.170,146.457 170.367,146.153 171.060 C 145.849 171.754,145.600 172.699,145.600 173.160 L 145.600 174.000 199.800 174.000 C 233.883 174.000,254.000 173.859,254.000 173.619 C 254.000 173.409,253.843 172.824,253.650 172.319 C 253.458 171.813,252.978 170.410,252.582 169.200 C 251.195 164.951,249.187 160.775,246.741 157.054 C 245.894 155.764,245.200 154.647,245.200 154.571 C 245.200 154.394,243.888 152.897,240.736 149.475 C 236.246 144.601,228.880 139.797,222.200 137.384 C 221.100 136.987,220.020 136.538,219.800 136.386 C 219.580 136.234,218.627 135.991,217.683 135.847 C 216.738 135.703,215.658 135.427,215.283 135.234 C 212.636 133.871,198.173 133.340,190.400 134.319 " stroke="none" fill="#046cb4" fill-rule="evenodd"></path><path id="path2" d="M185.600 64.817 C 184.360 64.979,185.495 65.016,188.200 64.901 C 190.840 64.789,193.075 64.630,193.167 64.549 C 193.434 64.311,188.007 64.503,185.600 64.817 M208.433 64.548 C 208.525 64.629,210.580 64.792,213.000 64.908 C 215.998 65.053,216.699 65.018,215.200 64.800 C 212.915 64.467,208.142 64.289,208.433 64.548 M175.400 66.192 C 172.187 66.869,173.856 66.892,177.400 66.220 C 178.940 65.928,179.660 65.689,179.000 65.688 C 178.340 65.688,176.720 65.914,175.400 66.192 M220.833 65.749 C 220.925 65.831,221.900 66.001,223.000 66.128 C 224.349 66.284,224.674 66.249,224.000 66.020 C 223.001 65.680,220.518 65.468,220.833 65.749 M160.400 69.618 C 159.962 69.915,160.124 69.952,161.000 69.756 C 162.471 69.427,162.790 69.198,161.767 69.206 C 161.345 69.209,160.730 69.395,160.400 69.618 M157.300 70.448 C 156.585 70.654,156.000 70.911,156.000 71.019 C 156.000 71.309,158.138 70.753,158.580 70.348 C 159.016 69.949,159.030 69.948,157.300 70.448 M148.100 73.612 C 146.761 74.151,147.011 74.424,148.400 73.940 C 149.060 73.710,149.600 73.449,149.600 73.361 C 149.600 73.124,149.113 73.205,148.100 73.612 M276.620 88.329 C 276.829 88.510,277.810 89.249,278.800 89.971 L 280.600 91.285 278.800 89.654 C 277.810 88.758,276.829 88.019,276.620 88.012 C 276.380 88.004,276.380 88.121,276.620 88.329 M115.000 92.650 C 114.281 93.262,114.134 93.505,114.633 93.257 C 115.366 92.893,116.741 91.576,116.349 91.614 C 116.267 91.622,115.660 92.088,115.000 92.650 M287.170 96.932 C 288.189 98.054,288.408 98.193,288.387 97.700 C 288.381 97.535,287.886 97.054,287.287 96.632 L 286.200 95.864 287.170 96.932 M104.778 101.900 L 103.400 103.400 104.900 102.022 C 105.725 101.263,106.400 100.588,106.400 100.522 C 106.400 100.216,106.062 100.504,104.778 101.900 M100.985 105.700 L 99.000 107.800 101.100 105.815 C 102.255 104.723,103.200 103.778,103.200 103.715 C 103.200 103.417,102.829 103.749,100.985 105.700 M94.175 113.468 C 93.559 114.276,93.259 114.811,93.509 114.656 C 94.021 114.340,95.753 112.000,95.475 112.000 C 95.376 112.000,94.791 112.661,94.175 113.468 M304.990 117.000 C 305.361 117.660,306.119 118.740,306.674 119.400 L 307.685 120.600 307.010 119.400 C 306.639 118.740,305.881 117.660,305.326 117.000 L 304.315 115.800 304.990 117.000 M190.200 134.018 C 189.228 134.203,189.935 134.239,192.000 134.110 C 193.870 133.993,195.475 133.830,195.567 133.749 C 195.849 133.497,191.895 133.696,190.200 134.018 M208.000 134.016 C 209.650 134.224,211.270 134.497,211.600 134.621 C 212.019 134.779,212.074 134.720,211.782 134.426 C 211.552 134.193,209.932 133.921,208.182 133.820 L 205.000 133.637 208.000 134.016 M183.000 135.415 C 181.412 135.965,181.410 135.967,182.800 135.742 C 183.570 135.618,184.371 135.355,184.580 135.158 C 185.047 134.718,184.987 134.728,183.000 135.415 M165.211 143.420 C 164.447 143.959,163.997 144.399,164.211 144.398 C 164.425 144.397,165.140 143.953,165.800 143.412 C 167.341 142.149,167.005 142.153,165.211 143.420 M234.200 143.788 C 234.860 144.329,235.570 144.778,235.778 144.786 C 235.985 144.794,235.545 144.350,234.800 143.800 C 233.057 142.514,232.635 142.505,234.200 143.788 M162.344 145.587 C 161.825 146.019,161.543 146.379,161.717 146.387 C 161.891 146.394,162.420 146.040,162.892 145.600 C 163.999 144.569,163.579 144.558,162.344 145.587 M74.867 147.180 C 74.633 147.851,74.527 148.400,74.631 148.400 C 74.901 148.400,75.656 146.322,75.457 146.124 C 75.367 146.033,75.101 146.508,74.867 147.180 M158.000 149.800 C 157.483 150.350,157.227 150.794,157.430 150.787 C 157.772 150.776,159.421 148.800,159.088 148.800 C 159.006 148.800,158.517 149.250,158.000 149.800 M73.667 150.380 C 73.433 151.051,73.327 151.600,73.431 151.600 C 73.701 151.600,74.456 149.522,74.257 149.324 C 74.167 149.233,73.901 149.708,73.667 150.380 M242.800 151.689 C 242.800 151.792,243.267 152.399,243.838 153.038 C 244.531 153.813,244.738 153.923,244.460 153.367 C 244.063 152.573,242.800 151.296,242.800 151.689 M323.606 154.633 C 323.609 155.055,323.795 155.670,324.018 156.000 C 324.315 156.438,324.352 156.276,324.156 155.400 C 323.827 153.929,323.598 153.610,323.606 154.633 M324.800 158.976 C 324.800 159.513,324.947 160.044,325.128 160.155 C 325.308 160.267,325.377 159.827,325.282 159.179 C 325.072 157.749,324.800 157.635,324.800 158.976 M70.480 160.280 C 69.888 162.209,70.175 162.495,70.800 160.600 C 71.064 159.801,71.202 159.069,71.107 158.974 C 71.012 158.878,70.730 159.466,70.480 160.280 M150.046 161.204 C 149.552 162.082,149.233 162.800,149.335 162.800 C 149.606 162.800,151.259 159.926,151.087 159.754 C 151.008 159.674,150.539 160.327,150.046 161.204 M325.997 163.184 C 326.163 164.090,326.404 164.937,326.532 165.065 C 326.877 165.410,326.348 162.258,325.996 161.868 C 325.831 161.685,325.831 162.277,325.997 163.184 M69.200 165.200 C 68.930 166.324,68.789 167.323,68.887 167.420 C 68.984 167.517,69.277 166.670,69.538 165.538 C 69.800 164.406,69.941 163.407,69.852 163.319 C 69.763 163.230,69.470 164.076,69.200 165.200 M326.806 167.033 C 326.809 167.455,326.995 168.070,327.218 168.400 C 327.515 168.838,327.552 168.676,327.356 167.800 C 327.027 166.329,326.798 166.010,326.806 167.033 M253.212 171.200 C 253.212 171.530,253.387 172.070,253.600 172.400 C 253.945 172.933,253.988 172.933,253.988 172.400 C 253.988 172.070,253.813 171.530,253.600 171.200 C 253.255 170.667,253.212 170.667,253.212 171.200 M328.000 173.176 C 328.000 173.823,328.142 174.441,328.316 174.548 C 328.490 174.656,328.561 174.127,328.473 173.372 C 328.276 171.691,328.000 171.577,328.000 173.176 M145.303 173.600 C 145.481 174.254,254.400 174.754,254.400 174.101 C 254.400 173.936,229.976 173.846,200.125 173.903 C 156.903 173.985,145.778 173.903,145.495 173.503 C 145.230 173.128,145.181 173.153,145.303 173.600 M66.956 176.171 C 66.835 176.485,66.804 177.160,66.886 177.671 C 66.995 178.354,67.088 178.204,67.237 177.100 C 67.447 175.547,67.336 175.181,66.956 176.171 M66.493 180.000 C 66.493 180.770,66.575 181.085,66.676 180.700 C 66.776 180.315,66.776 179.685,66.676 179.300 C 66.575 178.915,66.493 179.230,66.493 180.000 M329.200 180.976 C 329.200 181.733,329.338 182.438,329.507 182.543 C 329.676 182.647,329.748 182.028,329.665 181.166 C 329.481 179.232,329.200 179.118,329.200 180.976 M65.849 184.615 C 65.712 184.973,65.627 186.196,65.661 187.333 L 65.722 189.400 65.987 186.800 C 66.272 184.018,66.244 183.587,65.849 184.615 M330.128 188.800 C 330.128 190.230,330.201 190.815,330.289 190.100 C 330.378 189.385,330.378 188.215,330.289 187.500 C 330.201 186.785,330.128 187.370,330.128 188.800 M330.573 201.200 C 330.573 206.590,330.630 208.795,330.699 206.100 C 330.768 203.405,330.768 198.995,330.699 196.300 C 330.630 193.605,330.573 195.810,330.573 201.200 M64.937 201.000 C 64.939 202.760,65.009 203.430,65.093 202.489 C 65.178 201.549,65.177 200.109,65.091 199.289 C 65.005 198.470,64.936 199.240,64.937 201.000 M330.128 213.600 C 330.128 215.030,330.201 215.615,330.289 214.900 C 330.378 214.185,330.378 213.015,330.289 212.300 C 330.201 211.585,330.128 212.170,330.128 213.600 M65.646 215.276 C 65.621 216.528,65.735 217.636,65.900 217.738 C 66.065 217.840,66.146 217.086,66.080 216.062 C 65.893 213.141,65.697 212.786,65.646 215.276 M329.449 219.815 C 329.312 220.173,329.223 221.036,329.250 221.733 C 329.292 222.787,329.350 222.698,329.599 221.200 C 329.917 219.286,329.859 218.748,329.449 219.815 M66.493 222.400 C 66.493 223.170,66.575 223.485,66.676 223.100 C 66.776 222.715,66.776 222.085,66.676 221.700 C 66.575 221.315,66.493 221.630,66.493 222.400 M66.800 225.176 C 66.800 225.823,66.942 226.441,67.116 226.548 C 67.290 226.656,67.361 226.127,67.273 225.372 C 67.076 223.691,66.800 223.577,66.800 225.176 M328.154 228.177 C 328.032 228.494,328.003 229.079,328.089 229.477 C 328.187 229.928,328.324 229.712,328.454 228.900 C 328.671 227.538,328.530 227.196,328.154 228.177 M67.695 229.600 C 67.695 230.150,67.832 231.140,68.000 231.800 C 68.272 232.870,68.305 232.892,68.305 232.000 C 68.305 231.450,68.168 230.460,68.000 229.800 C 67.728 228.730,67.695 228.708,67.695 229.600 M69.206 237.033 C 69.209 237.455,69.395 238.070,69.618 238.400 C 69.915 238.838,69.952 238.676,69.756 237.800 C 69.427 236.329,69.198 236.010,69.206 237.033 M256.433 248.549 C 256.845 248.917,259.200 250.000,259.200 249.821 C 259.200 249.590,256.982 248.400,256.553 248.400 C 256.396 248.400,256.342 248.467,256.433 248.549 M156.400 249.174 C 156.400 249.525,161.154 254.194,161.290 253.977 C 161.350 253.880,160.275 252.703,158.900 251.362 C 157.525 250.021,156.400 249.036,156.400 249.174 M263.600 252.541 C 263.600 252.808,267.290 254.843,267.463 254.671 C 267.540 254.593,266.703 254.039,265.602 253.440 C 264.501 252.840,263.600 252.436,263.600 252.541 M166.800 258.167 C 166.800 258.252,167.430 258.693,168.200 259.147 C 168.970 259.601,169.600 259.832,169.600 259.661 C 169.600 259.489,168.970 259.048,168.200 258.681 C 167.430 258.313,166.800 258.082,166.800 258.167 M175.806 262.810 C 175.906 262.972,176.435 263.190,176.982 263.294 C 177.529 263.399,177.894 263.352,177.794 263.190 C 177.694 263.028,177.165 262.810,176.618 262.706 C 176.071 262.601,175.706 262.648,175.806 262.810 M186.800 266.156 C 186.800 266.242,187.417 266.385,188.172 266.473 C 188.927 266.561,189.456 266.490,189.348 266.316 C 189.155 266.003,186.800 265.855,186.800 266.156 M223.052 266.316 C 222.944 266.490,223.473 266.561,224.228 266.473 C 224.983 266.385,225.600 266.242,225.600 266.156 C 225.600 265.855,223.245 266.003,223.052 266.316 M194.400 267.425 C 195.803 267.735,198.318 267.790,198.143 267.507 C 198.038 267.338,197.018 267.221,195.876 267.246 C 194.734 267.272,194.070 267.352,194.400 267.425 M215.452 267.516 C 215.344 267.690,215.918 267.767,216.728 267.687 C 218.942 267.469,219.205 267.267,217.324 267.232 C 216.402 267.214,215.559 267.342,215.452 267.516 M289.800 268.000 C 290.460 268.437,291.180 268.795,291.400 268.796 C 291.620 268.796,291.211 268.438,290.490 267.999 C 288.792 266.963,288.236 266.964,289.800 268.000 M206.700 268.282 C 207.195 268.378,208.005 268.378,208.500 268.282 C 208.995 268.187,208.590 268.109,207.600 268.109 C 206.610 268.109,206.205 268.187,206.700 268.282 M87.600 279.600 C 88.070 280.260,88.544 280.800,88.654 280.800 C 88.764 280.800,88.470 280.260,88.000 279.600 C 87.530 278.940,87.056 278.400,86.946 278.400 C 86.836 278.400,87.130 278.940,87.600 279.600 M92.400 286.212 C 92.400 286.362,92.850 287.019,93.400 287.673 C 93.950 288.327,94.400 288.739,94.400 288.588 C 94.400 288.438,93.950 287.781,93.400 287.127 C 92.850 286.473,92.400 286.061,92.400 286.212 M98.000 293.184 C 98.000 293.309,100.379 295.749,103.286 298.606 C 106.194 301.463,108.489 303.671,108.386 303.512 C 107.994 302.906,98.000 292.968,98.000 293.184 M306.400 298.200 C 304.540 300.070,303.149 301.600,303.309 301.600 C 303.469 301.600,303.915 301.265,304.300 300.856 C 304.685 300.447,306.165 298.917,307.588 297.456 C 309.012 295.995,310.088 294.800,309.980 294.800 C 309.871 294.800,308.260 296.330,306.400 298.200 M300.187 304.500 L 297.800 307.000 300.390 304.600 C 301.815 303.280,303.060 302.155,303.157 302.100 C 303.254 302.045,303.163 302.000,302.954 302.000 C 302.746 302.000,301.501 303.125,300.187 304.500 M292.665 310.826 C 291.601 311.692,290.881 312.400,291.065 312.399 C 291.249 312.398,292.210 311.686,293.200 310.816 C 295.518 308.779,295.173 308.785,292.665 310.826 M128.000 317.987 C 129.093 318.829,130.535 319.342,130.177 318.763 C 130.054 318.563,129.715 318.400,129.425 318.400 C 129.135 318.400,128.674 318.130,128.400 317.800 C 128.126 317.470,127.699 317.204,127.451 317.209 C 127.203 317.214,127.450 317.564,128.000 317.987 M271.200 324.200 C 270.650 324.514,270.380 324.772,270.600 324.772 C 270.820 324.772,271.450 324.514,272.000 324.200 C 272.550 323.886,272.820 323.628,272.600 323.628 C 272.380 323.628,271.750 323.886,271.200 324.200 M265.800 326.614 C 265.140 326.917,264.881 327.172,265.224 327.182 C 265.566 327.192,266.196 326.936,266.624 326.613 C 267.572 325.896,267.369 325.896,265.800 326.614 M257.000 330.000 C 256.496 330.217,256.422 330.344,256.800 330.344 C 257.130 330.344,257.760 330.189,258.200 330.000 C 258.704 329.783,258.778 329.656,258.400 329.656 C 258.070 329.656,257.440 329.811,257.000 330.000 M157.027 330.755 C 157.452 331.144,159.929 331.796,159.554 331.420 C 159.419 331.286,158.711 331.004,157.981 330.795 C 157.251 330.585,156.822 330.568,157.027 330.755 M254.100 330.848 C 253.385 331.054,252.800 331.311,252.800 331.419 C 252.800 331.709,254.938 331.153,255.380 330.748 C 255.816 330.349,255.830 330.348,254.100 330.848 M161.024 332.039 C 161.117 332.189,161.812 332.384,162.568 332.472 C 163.325 332.561,163.868 332.510,163.776 332.361 C 163.683 332.211,162.988 332.016,162.232 331.928 C 161.475 331.839,160.932 331.890,161.024 332.039 M250.600 331.891 C 248.884 332.135,248.520 332.672,250.204 332.475 C 250.976 332.385,251.706 332.151,251.827 331.956 C 251.948 331.760,251.992 331.627,251.924 331.660 C 251.856 331.693,251.260 331.797,250.600 331.891 M165.404 333.206 C 165.538 333.423,166.207 333.600,166.890 333.600 C 168.401 333.600,168.249 333.400,166.480 333.063 C 165.655 332.906,165.252 332.960,165.404 333.206 M246.000 333.200 L 244.600 333.495 245.876 333.547 C 246.578 333.576,247.264 333.420,247.400 333.200 C 247.536 332.980,247.592 332.824,247.524 332.853 C 247.456 332.882,246.770 333.038,246.000 333.200 M171.000 334.400 C 172.196 334.914,173.195 334.914,172.400 334.400 C 172.070 334.187,171.440 334.022,171.000 334.034 L 170.200 334.056 171.000 334.400 M240.800 334.418 C 240.362 334.715,240.524 334.752,241.400 334.556 C 242.871 334.227,243.190 333.998,242.167 334.006 C 241.745 334.009,241.130 334.195,240.800 334.418 M176.400 335.356 C 176.400 335.442,177.017 335.585,177.772 335.673 C 178.527 335.761,179.056 335.690,178.948 335.516 C 178.755 335.203,176.400 335.055,176.400 335.356 M234.252 335.516 C 234.144 335.690,234.673 335.761,235.428 335.673 C 236.183 335.585,236.800 335.442,236.800 335.356 C 236.800 335.055,234.445 335.203,234.252 335.516 M184.600 336.603 C 185.514 336.921,187.929 337.009,187.748 336.716 C 187.641 336.542,186.798 336.414,185.876 336.432 C 184.954 336.449,184.380 336.526,184.600 336.603 M225.452 336.716 C 225.344 336.890,225.918 336.970,226.728 336.893 C 229.202 336.659,229.493 336.495,227.524 336.446 C 226.492 336.421,225.559 336.542,225.452 336.716 M193.300 337.491 C 194.125 337.578,195.475 337.578,196.300 337.491 C 197.125 337.405,196.450 337.334,194.800 337.334 C 193.150 337.334,192.475 337.405,193.300 337.491 M206.800 337.600 L 197.800 337.823 206.200 337.872 C 210.820 337.899,216.130 337.786,218.000 337.622 L 221.400 337.324 218.600 337.350 C 217.060 337.365,211.750 337.477,206.800 337.600 " stroke="none" fill="#3b8bc5" fill-rule="evenodd"></path><path id="path3" d="M398.800 271.892 C 398.470 272.017,398.110 272.228,398.000 272.360 C 397.671 272.755,396.250 273.607,395.500 273.858 C 395.115 273.988,394.800 274.233,394.800 274.403 C 394.800 274.574,394.350 274.826,393.800 274.964 C 392.802 275.215,392.269 277.200,393.200 277.200 C 393.420 277.200,393.600 277.547,393.600 277.971 C 393.600 278.396,393.870 279.013,394.200 279.343 C 394.530 279.673,394.800 280.071,394.800 280.228 C 394.800 280.814,396.620 284.223,397.240 284.800 C 397.595 285.130,398.013 285.805,398.170 286.300 C 398.326 286.795,398.622 287.200,398.827 287.200 C 399.032 287.200,399.200 287.470,399.200 287.800 C 399.200 288.130,399.380 288.400,399.600 288.400 C 399.854 288.400,400.000 285.333,400.000 280.000 C 400.000 275.380,399.865 271.614,399.700 271.632 C 399.535 271.649,399.130 271.766,398.800 271.892 " stroke="none" fill="#242454" fill-rule="evenodd"></path><path id="path4" d="M190.400 64.772 C 188.750 64.897,193.340 65.000,200.600 65.000 C 207.860 65.000,212.450 64.889,210.800 64.752 C 207.124 64.449,194.494 64.461,190.400 64.772 M181.000 65.643 C 177.323 66.172,177.082 66.364,180.400 66.123 C 182.050 66.003,183.571 65.746,183.780 65.552 C 184.020 65.330,184.020 65.218,183.780 65.249 C 183.571 65.276,182.320 65.453,181.000 65.643 M217.487 65.622 C 217.659 65.781,219.060 66.016,220.600 66.146 C 222.140 66.275,223.220 66.302,223.000 66.206 C 222.234 65.871,217.175 65.335,217.487 65.622 M173.800 66.800 L 172.200 67.086 173.676 67.143 C 174.488 67.174,175.264 67.020,175.400 66.800 C 175.536 66.580,175.592 66.426,175.524 66.457 C 175.456 66.488,174.680 66.642,173.800 66.800 M225.015 66.824 C 225.143 67.031,225.897 67.200,226.690 67.200 C 228.461 67.200,228.300 66.990,226.291 66.680 C 225.391 66.541,224.876 66.599,225.015 66.824 M167.600 67.893 C 166.830 67.983,166.029 68.224,165.820 68.429 C 165.611 68.633,164.981 68.803,164.420 68.806 C 163.859 68.809,163.130 68.996,162.800 69.221 C 162.370 69.514,162.652 69.555,163.800 69.366 C 164.680 69.221,165.571 68.945,165.780 68.751 C 165.989 68.558,166.709 68.382,167.380 68.360 C 168.051 68.338,169.050 68.176,169.600 68.000 C 170.725 67.640,170.056 67.604,167.600 67.893 M230.400 68.000 C 230.950 68.176,231.850 68.317,232.400 68.313 C 233.298 68.306,233.278 68.274,232.200 68.000 C 230.508 67.569,229.056 67.569,230.400 68.000 M234.252 68.783 C 234.636 69.136,237.928 69.801,237.589 69.458 C 237.472 69.340,236.596 69.068,235.640 68.854 C 234.685 68.639,234.060 68.607,234.252 68.783 M160.000 69.888 C 159.450 69.987,158.843 70.219,158.651 70.403 C 158.459 70.587,158.968 70.588,159.783 70.404 C 160.597 70.220,161.369 69.964,161.498 69.835 C 161.743 69.590,161.643 69.594,160.000 69.888 M238.616 70.026 C 238.712 70.181,239.323 70.386,239.974 70.482 C 240.625 70.577,241.079 70.529,240.984 70.374 C 240.888 70.219,240.277 70.014,239.626 69.918 C 238.975 69.823,238.521 69.871,238.616 70.026 M156.000 71.088 C 154.533 71.351,154.162 71.896,155.592 71.686 C 156.262 71.588,156.908 71.349,157.029 71.154 C 157.149 70.959,157.192 70.825,157.124 70.854 C 157.056 70.884,156.550 70.990,156.000 71.088 M242.162 71.138 C 242.287 71.341,242.938 71.588,243.608 71.686 C 245.071 71.901,244.665 71.413,243.066 71.036 C 242.405 70.879,242.028 70.922,242.162 71.138 M152.100 72.412 C 151.605 72.611,151.200 72.857,151.200 72.959 C 151.200 73.180,153.616 72.517,153.921 72.212 C 154.250 71.883,153.102 72.010,152.100 72.412 M245.200 72.084 C 245.310 72.193,246.026 72.493,246.791 72.751 C 247.556 73.010,248.006 73.050,247.791 72.839 C 247.576 72.629,246.860 72.329,246.200 72.172 C 245.540 72.016,245.090 71.976,245.200 72.084 M146.600 74.614 C 145.600 75.096,145.566 75.151,146.400 74.948 C 147.533 74.671,148.807 74.021,148.200 74.030 C 147.980 74.033,147.260 74.296,146.600 74.614 M140.976 77.022 C 140.212 77.634,140.213 77.638,141.000 77.276 C 141.440 77.074,142.070 76.808,142.400 76.686 C 142.918 76.493,142.915 76.459,142.376 76.432 C 142.034 76.414,141.404 76.680,140.976 77.022 M259.200 78.200 C 259.750 78.514,260.380 78.772,260.600 78.772 C 260.820 78.772,260.550 78.514,260.000 78.200 C 259.450 77.886,258.820 77.628,258.600 77.628 C 258.380 77.628,258.650 77.886,259.200 78.200 M261.200 78.984 C 261.200 79.094,261.920 79.551,262.800 80.000 C 263.680 80.449,264.400 80.726,264.400 80.616 C 264.400 80.506,263.680 80.049,262.800 79.600 C 261.920 79.151,261.200 78.874,261.200 78.984 M264.800 80.939 C 264.800 81.041,265.655 81.621,266.700 82.227 C 267.745 82.834,268.690 83.449,268.800 83.595 C 268.910 83.740,269.360 83.983,269.800 84.134 C 270.510 84.379,270.498 84.331,269.701 83.705 C 268.569 82.818,264.800 80.691,264.800 80.939 M127.000 84.427 C 126.193 84.944,126.021 85.196,126.476 85.198 C 126.848 85.199,127.272 85.007,127.417 84.772 C 127.563 84.537,128.068 84.188,128.541 83.997 C 129.013 83.807,129.130 83.652,128.800 83.655 C 128.470 83.657,127.660 84.004,127.000 84.427 M273.000 86.242 C 274.452 87.361,275.424 87.692,274.200 86.650 C 273.540 86.088,272.820 85.628,272.600 85.627 C 272.380 85.626,272.560 85.903,273.000 86.242 M118.915 89.987 C 117.127 91.300,115.529 92.591,115.366 92.855 C 115.122 93.250,120.888 89.090,122.180 87.939 C 123.330 86.914,121.761 87.898,118.915 89.987 M279.800 90.985 C 282.198 93.118,284.754 95.200,284.975 95.200 C 285.298 95.200,282.527 92.801,280.400 91.239 C 279.220 90.372,279.014 90.285,279.800 90.985 M109.348 97.900 C 107.592 99.605,106.974 100.270,107.977 99.378 C 108.980 98.485,110.566 97.090,111.501 96.278 C 112.437 95.465,113.054 94.800,112.872 94.800 C 112.691 94.800,111.105 96.195,109.348 97.900 M288.345 98.380 C 289.865 99.689,292.300 102.125,293.755 103.793 C 295.210 105.461,296.400 106.631,296.400 106.393 C 296.400 105.830,286.572 96.000,286.009 96.000 C 285.773 96.000,286.824 97.071,288.345 98.380 M102.778 104.300 L 101.400 105.800 102.900 104.422 C 103.725 103.663,104.400 102.988,104.400 102.922 C 104.400 102.616,104.062 102.904,102.778 104.300 M297.319 107.675 C 297.685 108.266,298.737 109.526,299.655 110.475 C 301.258 112.131,301.248 112.104,299.391 109.800 C 297.015 106.852,296.450 106.273,297.319 107.675 M98.282 108.930 C 96.106 111.482,96.105 111.483,97.339 110.400 C 98.419 109.452,100.225 107.200,99.905 107.200 C 99.823 107.200,99.093 107.978,98.282 108.930 M94.000 114.076 C 92.053 116.387,91.597 117.343,93.369 115.400 C 94.685 113.957,95.809 112.389,95.514 112.407 C 95.451 112.411,94.770 113.162,94.000 114.076 M302.175 113.732 C 302.791 114.539,303.376 115.200,303.475 115.200 C 303.753 115.200,302.021 112.860,301.509 112.544 C 301.259 112.389,301.559 112.924,302.175 113.732 M304.400 116.800 C 304.870 117.460,305.344 118.000,305.454 118.000 C 305.564 118.000,305.270 117.460,304.800 116.800 C 304.330 116.140,303.856 115.600,303.746 115.600 C 303.636 115.600,303.930 116.140,304.400 116.800 M90.572 118.654 C 88.890 120.742,88.489 121.651,89.980 120.000 C 91.192 118.656,92.184 117.200,91.886 117.200 C 91.808 117.200,91.216 117.854,90.572 118.654 M306.585 119.900 C 307.202 120.835,307.783 121.600,307.876 121.600 C 308.164 121.600,306.633 119.166,306.032 118.669 C 305.720 118.411,305.968 118.965,306.585 119.900 M308.349 122.600 C 308.565 123.040,309.034 123.760,309.393 124.200 L 310.044 125.000 309.651 124.200 C 309.435 123.760,308.966 123.040,308.607 122.600 L 307.956 121.800 308.349 122.600 M82.846 130.804 C 82.352 131.682,82.095 132.394,82.274 132.387 C 82.606 132.374,84.073 129.540,83.859 129.326 C 83.795 129.262,83.339 129.927,82.846 130.804 M312.690 129.900 C 313.049 130.851,314.440 133.200,314.643 133.200 C 314.734 133.200,314.337 132.300,313.762 131.200 C 312.724 129.214,312.182 128.558,312.690 129.900 M80.678 135.020 C 79.209 138.014,79.345 138.369,80.846 135.460 C 81.510 134.173,81.986 133.053,81.904 132.971 C 81.823 132.889,81.271 133.811,80.678 135.020 M191.462 133.500 C 191.360 133.665,195.382 133.800,200.400 133.800 C 205.418 133.800,209.440 133.665,209.338 133.500 C 209.236 133.335,205.214 133.200,200.400 133.200 C 195.586 133.200,191.564 133.335,191.462 133.500 M186.400 134.295 C 185.410 134.381,184.464 134.584,184.299 134.746 C 184.133 134.909,184.982 134.934,186.185 134.802 C 187.388 134.669,188.499 134.435,188.653 134.280 C 188.807 134.126,188.768 134.031,188.567 134.070 C 188.365 134.108,187.390 134.210,186.400 134.295 M211.865 134.406 C 212.049 134.580,213.047 134.786,214.081 134.863 C 215.116 134.940,215.836 134.889,215.681 134.750 C 215.266 134.377,211.472 134.036,211.865 134.406 M181.000 135.600 C 180.496 135.817,180.422 135.944,180.800 135.944 C 181.130 135.944,181.760 135.789,182.200 135.600 C 182.704 135.383,182.778 135.256,182.400 135.256 C 182.070 135.256,181.440 135.411,181.000 135.600 M217.600 135.600 C 218.968 136.038,220.019 136.038,219.000 135.600 C 218.560 135.411,217.840 135.262,217.400 135.268 C 216.757 135.277,216.796 135.343,217.600 135.600 M316.012 136.049 C 315.993 136.452,317.620 140.000,317.824 140.000 C 317.927 140.000,317.748 139.372,317.427 138.604 C 316.755 136.995,316.030 135.686,316.012 136.049 M177.400 136.800 C 177.108 137.273,177.499 137.273,178.600 136.800 C 179.371 136.469,179.369 136.455,178.524 136.428 C 178.042 136.413,177.536 136.580,177.400 136.800 M223.200 137.334 C 223.200 137.437,223.781 137.724,224.491 137.972 C 225.201 138.219,225.606 138.257,225.391 138.056 C 224.935 137.629,223.200 137.058,223.200 137.334 M78.065 140.217 C 77.395 141.688,77.523 142.002,78.247 140.665 C 78.586 140.040,78.788 139.454,78.696 139.363 C 78.605 139.271,78.321 139.656,78.065 140.217 M169.300 140.446 C 167.481 141.611,167.681 141.749,169.700 140.724 C 171.789 139.664,171.874 139.598,171.167 139.607 C 170.855 139.610,170.015 139.988,169.300 140.446 M165.893 142.614 C 165.072 143.172,164.400 143.715,164.400 143.820 C 164.400 143.925,165.120 143.535,166.000 142.953 C 167.397 142.028,167.870 141.600,167.493 141.600 C 167.434 141.600,166.714 142.056,165.893 142.614 M232.174 141.958 C 232.323 142.199,232.816 142.595,233.271 142.838 C 233.862 143.154,234.020 143.156,233.826 142.842 C 233.677 142.601,233.184 142.205,232.729 141.962 C 232.138 141.646,231.980 141.644,232.174 141.958 M235.796 144.543 C 236.673 145.344,237.542 146.000,237.726 146.000 C 237.911 146.000,237.553 145.591,236.931 145.091 C 234.798 143.375,234.201 143.087,235.796 144.543 M319.418 144.100 C 319.568 144.595,319.855 145.176,320.056 145.391 C 320.257 145.606,320.219 145.201,319.972 144.491 C 319.465 143.038,318.997 142.708,319.418 144.100 M158.985 148.500 L 157.000 150.600 159.192 148.600 C 160.397 147.500,161.462 146.555,161.558 146.500 C 161.655 146.445,161.562 146.400,161.352 146.400 C 161.142 146.400,160.077 147.345,158.985 148.500 M74.587 148.600 C 74.484 148.930,74.312 149.479,74.205 149.821 C 74.097 150.162,74.166 150.345,74.357 150.227 C 74.548 150.109,74.791 149.559,74.897 149.006 C 75.106 147.913,74.890 147.630,74.587 148.600 M242.661 151.100 C 243.224 151.705,244.411 153.235,245.300 154.500 C 246.737 156.546,247.737 157.634,246.953 156.300 C 246.090 154.830,242.280 150.000,241.984 150.000 C 241.794 150.000,242.098 150.495,242.661 151.100 M156.111 151.300 C 155.380 152.245,155.054 153.095,155.689 152.400 C 155.990 152.070,156.489 151.575,156.798 151.300 C 157.109 151.024,157.167 150.800,156.929 150.800 C 156.692 150.800,156.324 151.025,156.111 151.300 M73.467 151.467 C 73.320 151.613,73.211 152.108,73.225 152.567 C 73.249 153.333,73.282 153.323,73.634 152.442 C 74.026 151.463,73.944 150.989,73.467 151.467 M322.812 153.200 C 322.812 153.530,322.987 154.070,323.200 154.400 C 323.545 154.933,323.588 154.933,323.588 154.400 C 323.588 154.070,323.413 153.530,323.200 153.200 C 322.855 152.667,322.812 152.667,322.812 153.200 M153.996 154.097 C 152.907 155.734,152.759 156.000,152.933 156.000 C 153.027 156.000,153.586 155.370,154.173 154.600 C 154.760 153.830,155.095 153.200,154.917 153.200 C 154.738 153.200,154.324 153.604,153.996 154.097 M72.229 155.429 C 72.081 156.015,72.051 156.584,72.161 156.694 C 72.271 156.804,72.481 156.415,72.629 155.829 C 72.776 155.242,72.806 154.673,72.696 154.563 C 72.586 154.453,72.376 154.842,72.229 155.429 M323.663 155.800 C 323.662 156.020,323.903 156.830,324.200 157.600 C 324.497 158.370,324.745 158.730,324.752 158.400 C 324.758 158.070,324.517 157.260,324.214 156.600 C 323.912 155.940,323.664 155.580,323.663 155.800 M151.019 158.821 C 149.643 161.169,149.059 162.589,150.127 160.989 C 151.188 159.399,152.828 156.400,152.636 156.400 C 152.527 156.400,151.800 157.490,151.019 158.821 M71.152 159.113 C 71.021 159.907,71.079 160.281,71.301 160.059 C 71.503 159.857,71.601 159.267,71.519 158.746 C 71.393 157.945,71.337 158.002,71.152 159.113 M325.256 161.434 C 325.491 162.295,325.776 163.090,325.889 163.200 C 326.241 163.544,325.534 160.620,325.172 160.234 C 324.983 160.033,325.021 160.573,325.256 161.434 M70.184 162.300 C 70.056 162.905,69.883 163.741,69.798 164.158 C 69.714 164.574,69.791 164.754,69.970 164.558 C 70.319 164.174,70.862 161.200,70.582 161.200 C 70.490 161.200,70.311 161.695,70.184 162.300 M250.618 163.700 C 250.768 164.195,251.055 164.776,251.256 164.991 C 251.457 165.206,251.419 164.801,251.172 164.091 C 250.665 162.638,250.197 162.308,250.618 163.700 M147.650 165.450 C 147.386 166.029,147.262 166.595,147.374 166.707 C 147.486 166.819,147.768 166.411,148.000 165.800 C 148.549 164.357,148.273 164.082,147.650 165.450 M326.244 165.400 C 326.573 166.871,326.802 167.190,326.794 166.167 C 326.791 165.745,326.605 165.130,326.382 164.800 C 326.085 164.362,326.048 164.524,326.244 165.400 M251.802 166.450 C 252.217 167.821,252.736 168.247,252.503 167.024 C 252.394 166.454,252.127 165.878,251.909 165.744 C 251.663 165.592,251.623 165.858,251.802 166.450 M68.905 168.028 C 68.684 169.143,68.642 169.908,68.811 169.728 C 69.159 169.356,69.768 166.000,69.488 166.000 C 69.388 166.000,69.126 166.913,68.905 168.028 M253.029 169.600 C 253.176 170.150,253.464 170.870,253.667 171.200 C 253.925 171.617,253.957 171.495,253.771 170.800 C 253.624 170.250,253.336 169.530,253.133 169.200 C 252.875 168.783,252.843 168.905,253.029 169.600 M327.287 169.600 C 327.291 170.150,327.432 171.140,327.600 171.800 L 327.905 173.000 327.913 171.800 C 327.917 171.140,327.776 170.150,327.600 169.600 L 327.280 168.600 327.287 169.600 M67.833 173.233 C 67.683 174.366,67.641 175.374,67.739 175.472 C 67.837 175.571,68.045 174.728,68.200 173.600 C 68.355 172.472,68.398 171.464,68.294 171.361 C 68.191 171.258,67.984 172.100,67.833 173.233 M145.487 171.473 C 144.973 172.344,144.765 174.400,145.192 174.400 C 145.442 174.400,145.545 174.235,145.421 174.034 C 145.296 173.832,145.381 173.177,145.608 172.578 C 145.997 171.555,145.910 170.758,145.487 171.473 M328.399 176.985 C 328.517 178.394,328.769 179.694,328.960 179.874 C 329.370 180.260,328.878 175.136,328.464 174.712 C 328.310 174.553,328.281 175.577,328.399 176.985 M66.600 181.200 C 66.443 182.766,66.400 184.133,66.504 184.237 C 66.608 184.342,66.820 183.144,66.975 181.575 C 67.130 180.006,67.173 178.639,67.071 178.538 C 66.969 178.436,66.757 179.634,66.600 181.200 M329.600 187.186 C 329.710 189.797,329.891 192.025,330.002 192.136 C 330.305 192.438,329.966 183.044,329.662 182.719 C 329.518 182.564,329.490 184.574,329.600 187.186 M66.120 186.800 C 66.120 188.010,66.195 188.505,66.287 187.900 C 66.378 187.295,66.378 186.305,66.287 185.700 C 66.195 185.095,66.120 185.590,66.120 186.800 M65.679 192.400 C 65.631 194.270,65.504 196.520,65.397 197.400 L 65.203 199.000 65.616 197.687 C 65.844 196.965,65.970 194.715,65.898 192.687 L 65.766 189.000 65.679 192.400 M65.494 208.000 C 65.588 210.530,65.726 212.780,65.801 213.000 C 66.083 213.829,65.907 205.356,65.622 204.400 C 65.458 203.850,65.401 205.470,65.494 208.000 M329.828 211.300 C 329.507 213.300,329.367 220.006,329.657 219.473 C 329.889 219.047,330.335 210.000,330.124 210.000 C 330.076 210.000,329.942 210.585,329.828 211.300 M66.120 215.600 C 66.120 216.810,66.195 217.305,66.287 216.700 C 66.378 216.095,66.378 215.105,66.287 214.500 C 66.195 213.895,66.120 214.390,66.120 215.600 M66.480 219.200 C 66.468 219.970,66.603 221.410,66.780 222.400 C 67.076 224.067,67.101 224.097,67.120 222.800 C 67.132 222.030,66.997 220.590,66.820 219.600 C 66.524 217.933,66.499 217.903,66.480 219.200 M328.635 223.253 C 328.301 224.808,328.180 227.936,328.461 227.763 C 328.805 227.550,329.348 222.815,329.062 222.528 C 328.939 222.406,328.747 222.732,328.635 223.253 M67.455 226.800 C 68.002 229.967,68.377 231.061,68.141 228.800 C 68.014 227.590,67.754 226.330,67.562 226.000 C 67.343 225.623,67.304 225.921,67.455 226.800 M327.573 230.600 L 327.400 231.800 236.900 231.901 C 187.125 231.956,146.403 232.136,146.406 232.301 C 146.409 232.465,146.606 232.870,146.844 233.200 C 147.208 233.706,147.240 233.691,147.050 233.100 C 146.836 232.435,151.298 232.400,236.964 232.400 C 334.697 232.400,328.284 232.547,327.904 230.322 C 327.767 229.522,327.723 229.558,327.573 230.600 M68.844 234.052 C 69.388 236.547,69.630 236.901,69.354 234.800 C 69.224 233.810,68.970 232.843,68.790 232.652 C 68.611 232.460,68.635 233.090,68.844 234.052 M147.429 234.800 C 147.576 235.350,147.864 236.070,148.067 236.400 C 148.325 236.817,148.357 236.695,148.171 236.000 C 148.024 235.450,147.736 234.730,147.533 234.400 C 147.275 233.983,147.243 234.105,147.429 234.800 M69.928 239.032 C 70.016 239.788,70.211 240.483,70.361 240.576 C 70.510 240.668,70.561 240.125,70.472 239.368 C 70.384 238.612,70.189 237.917,70.039 237.824 C 69.890 237.732,69.839 238.275,69.928 239.032 M71.196 243.383 C 71.380 244.197,71.638 244.971,71.769 245.103 C 72.126 245.460,71.545 242.657,71.178 242.251 C 71.004 242.059,71.012 242.568,71.196 243.383 M153.176 245.474 C 154.113 246.834,155.245 248.274,155.692 248.674 C 156.139 249.073,155.562 248.140,154.410 246.600 C 151.672 242.939,151.025 242.349,153.176 245.474 M72.056 246.000 C 72.056 246.330,72.211 246.960,72.400 247.400 C 72.617 247.904,72.744 247.978,72.744 247.600 C 72.744 247.270,72.589 246.640,72.400 246.200 C 72.183 245.696,72.056 245.622,72.056 246.000 M253.488 251.462 C 251.996 252.918,250.835 254.168,250.908 254.241 C 250.981 254.314,252.242 253.196,253.710 251.757 C 255.890 249.618,256.545 249.186,257.289 249.396 C 258.000 249.596,258.068 249.560,257.600 249.232 C 256.612 248.541,256.315 248.702,253.488 251.462 M158.000 251.349 C 159.640 253.106,165.347 257.804,166.800 258.592 C 167.787 259.127,166.815 258.291,164.000 256.181 C 162.570 255.110,160.230 253.150,158.800 251.826 C 156.629 249.817,156.497 249.738,158.000 251.349 M74.218 252.500 C 74.368 252.995,74.655 253.576,74.856 253.791 C 75.057 254.006,75.019 253.601,74.772 252.891 C 74.265 251.438,73.797 251.108,74.218 252.500 M266.168 254.349 C 266.294 254.551,267.162 255.112,268.098 255.594 C 269.034 256.077,269.620 256.292,269.400 256.073 C 268.790 255.466,265.909 253.929,266.168 254.349 M75.418 255.700 C 75.568 256.195,75.855 256.776,76.056 256.991 C 76.257 257.206,76.219 256.801,75.972 256.091 C 75.465 254.638,74.997 254.308,75.418 255.700 M247.597 256.456 C 246.829 257.114,246.560 257.463,247.000 257.232 C 248.186 256.612,249.366 255.633,249.168 255.435 C 249.073 255.340,248.366 255.799,247.597 256.456 M76.430 258.000 C 76.428 258.576,77.557 260.866,77.586 260.346 C 77.594 260.206,77.337 259.486,77.016 258.746 C 76.694 258.006,76.431 257.670,76.430 258.000 M244.200 258.590 C 243.320 259.132,242.725 259.581,242.877 259.588 C 243.224 259.603,246.000 257.979,246.000 257.760 C 246.000 257.500,245.876 257.557,244.200 258.590 M272.600 258.210 C 273.531 258.970,277.595 261.078,277.000 260.492 C 276.780 260.275,275.520 259.526,274.200 258.827 C 272.880 258.128,272.160 257.851,272.600 258.210 M169.600 260.160 C 169.600 260.429,172.885 262.048,173.065 261.868 C 173.158 261.775,172.501 261.317,171.605 260.849 C 169.961 259.992,169.600 259.868,169.600 260.160 M173.600 262.134 C 173.600 262.237,174.181 262.524,174.891 262.772 C 175.601 263.019,176.006 263.057,175.791 262.856 C 175.335 262.429,173.600 261.858,173.600 262.134 M236.500 262.412 C 235.161 262.951,235.411 263.224,236.800 262.740 C 237.460 262.510,238.000 262.249,238.000 262.161 C 238.000 261.924,237.513 262.005,236.500 262.412 M176.400 263.284 C 176.510 263.393,177.226 263.693,177.991 263.951 C 178.756 264.210,179.206 264.250,178.991 264.039 C 178.776 263.829,178.060 263.529,177.400 263.372 C 176.740 263.216,176.290 263.176,176.400 263.284 M180.400 264.800 C 180.730 265.013,181.270 265.188,181.600 265.188 C 182.133 265.188,182.133 265.145,181.600 264.800 C 181.270 264.587,180.730 264.412,180.400 264.412 C 179.867 264.412,179.867 264.455,180.400 264.800 M229.400 265.011 C 228.520 265.301,228.160 265.544,228.600 265.551 C 229.040 265.558,229.940 265.317,230.600 265.014 C 232.112 264.322,231.496 264.321,229.400 265.011 M184.600 266.000 C 185.040 266.189,185.760 266.344,186.200 266.344 L 187.000 266.344 186.200 266.000 C 185.760 265.811,185.040 265.656,184.600 265.656 L 183.800 265.656 184.600 266.000 M189.400 267.024 C 190.720 267.321,192.340 267.553,193.000 267.538 C 193.660 267.523,192.940 267.272,191.400 266.980 C 187.763 266.290,186.294 266.323,189.400 267.024 M221.000 267.008 C 219.569 267.309,219.085 267.515,219.800 267.518 C 220.460 267.521,221.900 267.292,223.000 267.009 C 225.570 266.349,224.136 266.348,221.000 267.008 M197.741 268.023 C 198.799 268.683,214.762 268.702,215.821 268.045 C 216.531 267.604,216.513 267.586,215.617 267.834 C 214.396 268.172,199.156 268.152,197.909 267.811 C 197.090 267.586,197.073 267.607,197.741 268.023 M291.776 269.413 C 292.204 269.736,292.733 270.000,292.953 270.000 C 293.173 270.000,293.004 269.736,292.576 269.413 C 292.149 269.090,291.620 268.825,291.400 268.825 C 291.180 268.825,291.349 269.090,291.776 269.413 M82.846 271.196 C 83.339 272.073,83.808 272.726,83.887 272.646 C 84.059 272.474,82.406 269.600,82.135 269.600 C 82.033 269.600,82.352 270.318,82.846 271.196 M293.603 270.296 C 293.605 270.619,296.027 272.107,296.226 271.908 C 296.290 271.843,295.726 271.386,294.971 270.892 C 294.217 270.397,293.601 270.129,293.603 270.296 M84.524 274.200 C 84.862 274.860,85.438 275.760,85.804 276.200 C 86.170 276.640,86.065 276.280,85.570 275.400 C 84.480 273.458,83.664 272.522,84.524 274.200 M298.800 273.315 C 298.800 273.542,303.541 276.400,303.918 276.400 C 304.257 276.400,303.064 275.593,300.700 274.224 C 299.655 273.619,298.800 273.210,298.800 273.315 M86.762 277.800 C 86.990 278.240,87.554 279.050,88.015 279.600 C 88.587 280.282,88.722 280.346,88.438 279.800 C 88.210 279.360,87.646 278.550,87.185 278.000 C 86.613 277.318,86.478 277.254,86.762 277.800 M307.200 278.421 C 308.242 279.130,310.000 280.028,310.000 279.850 C 310.000 279.628,307.239 277.998,306.877 278.006 C 306.725 278.009,306.870 278.196,307.200 278.421 M89.011 281.200 C 89.607 282.286,93.657 287.588,94.101 287.862 C 94.340 288.010,93.398 286.617,92.006 284.766 C 89.373 281.261,88.430 280.138,89.011 281.200 M316.758 283.966 C 317.105 284.185,317.210 284.600,317.035 285.060 C 316.817 285.631,316.861 285.692,317.229 285.327 C 317.795 284.766,317.444 283.597,316.713 283.606 C 316.329 283.611,316.341 283.701,316.758 283.966 M314.800 287.866 C 312.597 290.754,312.039 291.616,313.031 290.600 C 314.571 289.023,316.890 286.000,316.548 286.016 C 316.357 286.024,315.570 286.857,314.800 287.866 M95.649 289.993 C 96.392 290.979,99.411 294.219,102.359 297.193 C 105.306 300.167,107.376 302.170,106.959 301.645 C 106.541 301.120,104.486 298.960,102.390 296.845 C 100.295 294.730,97.617 291.920,96.439 290.600 C 94.922 288.900,94.691 288.723,95.649 289.993 M311.600 291.946 C 311.600 292.137,309.689 294.342,307.354 296.846 L 303.108 301.400 307.554 296.883 C 311.468 292.906,312.518 291.600,311.800 291.600 C 311.690 291.600,311.600 291.756,311.600 291.946 M301.570 302.651 C 301.036 303.229,299.204 304.939,297.497 306.451 C 295.791 307.963,294.542 309.200,294.722 309.200 C 295.082 309.200,295.574 308.770,300.075 304.510 C 301.766 302.909,303.012 301.600,302.844 301.600 C 302.677 301.600,302.103 302.073,301.570 302.651 M108.200 303.067 C 109.287 304.113,114.011 307.998,115.600 309.154 L 117.400 310.463 115.861 309.131 C 111.315 305.200,106.241 301.183,108.200 303.067 M292.200 310.830 C 291.320 311.494,290.534 312.225,290.454 312.456 C 290.374 312.686,290.734 312.511,291.254 312.067 C 291.774 311.624,292.650 310.893,293.200 310.444 C 294.739 309.186,293.999 309.472,292.200 310.830 M120.000 312.385 C 120.550 312.846,121.360 313.410,121.800 313.638 C 122.346 313.922,122.282 313.787,121.600 313.215 C 121.050 312.754,120.240 312.190,119.800 311.962 C 119.254 311.678,119.318 311.813,120.000 312.385 M288.000 314.035 L 286.600 315.248 288.095 314.324 C 288.917 313.816,289.592 313.265,289.595 313.100 C 289.602 312.664,289.538 312.702,288.000 314.035 M122.800 314.186 C 122.800 314.455,127.259 317.274,127.424 317.109 C 127.499 317.034,126.489 316.303,125.180 315.485 C 123.871 314.667,122.800 314.082,122.800 314.186 M284.000 316.800 C 283.450 317.230,282.820 317.593,282.600 317.605 C 282.380 317.618,281.660 318.088,281.000 318.650 L 279.800 319.672 281.505 318.736 C 283.162 317.827,285.603 316.034,285.200 316.023 C 285.090 316.020,284.550 316.370,284.000 316.800 M278.136 320.190 C 277.672 320.514,276.417 321.244,275.347 321.810 C 274.276 322.377,273.829 322.722,274.352 322.577 C 275.480 322.264,279.985 319.603,279.389 319.601 C 279.163 319.600,278.599 319.865,278.136 320.190 M270.700 324.027 C 269.875 324.463,269.200 324.908,269.200 325.018 C 269.200 325.127,269.875 324.878,270.700 324.464 C 271.525 324.050,272.470 323.610,272.800 323.487 C 273.333 323.288,273.333 323.262,272.800 323.249 C 272.470 323.242,271.525 323.592,270.700 324.027 M140.800 324.222 C 140.800 324.331,141.205 324.580,141.700 324.775 C 142.195 324.970,143.275 325.418,144.100 325.771 C 146.160 326.650,145.999 326.256,143.900 325.284 C 141.784 324.304,140.800 323.967,140.800 324.222 M267.300 325.612 C 265.961 326.151,266.211 326.424,267.600 325.940 C 268.260 325.710,268.800 325.449,268.800 325.361 C 268.800 325.124,268.313 325.205,267.300 325.612 M264.176 327.022 C 263.412 327.634,263.413 327.638,264.200 327.276 C 264.640 327.074,265.270 326.808,265.600 326.686 C 266.118 326.493,266.115 326.459,265.576 326.432 C 265.234 326.414,264.604 326.680,264.176 327.022 M259.500 328.676 C 259.115 328.776,258.800 329.032,258.800 329.243 C 258.800 329.465,259.182 329.430,259.700 329.160 C 261.200 328.379,261.145 328.246,259.500 328.676 M156.000 330.200 C 156.770 330.497,157.670 330.739,158.000 330.739 C 158.330 330.739,157.970 330.497,157.200 330.200 C 156.430 329.903,155.530 329.661,155.200 329.661 C 154.870 329.661,155.230 329.903,156.000 330.200 M255.400 330.186 C 253.855 330.893,254.574 330.903,256.400 330.200 C 257.170 329.903,257.530 329.655,257.200 329.648 C 256.870 329.642,256.060 329.883,255.400 330.186 M159.200 331.166 C 159.530 331.354,160.430 331.617,161.200 331.751 L 162.600 331.993 161.200 331.427 C 159.574 330.770,158.187 330.589,159.200 331.166 M251.600 331.400 C 250.830 331.697,250.470 331.945,250.800 331.952 C 251.130 331.958,251.940 331.717,252.600 331.414 C 254.145 330.707,253.426 330.697,251.600 331.400 M247.200 332.631 L 245.400 333.184 247.000 332.961 C 247.880 332.838,248.771 332.572,248.980 332.369 C 249.426 331.936,249.499 331.925,247.200 332.631 M168.400 333.600 C 168.730 333.813,169.450 333.973,170.000 333.954 L 171.000 333.920 170.000 333.600 C 168.458 333.106,167.636 333.106,168.400 333.600 M243.000 333.600 C 241.893 333.882,241.877 333.909,242.800 333.947 C 243.350 333.969,244.070 333.813,244.400 333.600 C 245.081 333.160,244.729 333.160,243.000 333.600 M172.421 334.370 C 172.763 334.580,174.023 334.847,175.221 334.964 L 177.400 335.177 175.600 334.799 C 174.610 334.592,173.350 334.324,172.800 334.205 C 172.054 334.044,171.958 334.086,172.421 334.370 M238.400 334.630 L 236.200 335.170 238.200 334.947 C 239.300 334.824,240.470 334.567,240.800 334.374 C 241.582 333.918,241.080 333.972,238.400 334.630 M179.087 335.632 C 179.259 335.796,180.660 336.035,182.200 336.163 C 183.740 336.292,184.820 336.314,184.600 336.214 C 183.844 335.869,178.773 335.333,179.087 335.632 M231.800 335.643 C 228.210 336.159,227.842 336.400,231.000 336.166 C 232.540 336.052,233.971 335.788,234.180 335.579 C 234.389 335.371,234.479 335.222,234.380 335.249 C 234.281 335.276,233.120 335.453,231.800 335.643 M187.918 336.865 C 188.242 337.169,198.837 337.504,198.534 337.200 C 198.425 337.090,195.928 336.910,192.986 336.800 C 190.044 336.690,187.764 336.719,187.918 336.865 M220.132 336.773 C 217.235 336.898,214.775 337.090,214.665 337.200 C 214.298 337.569,224.995 337.134,225.380 336.765 C 225.589 336.564,225.679 336.433,225.580 336.473 C 225.481 336.513,223.030 336.648,220.132 336.773 " stroke="none" fill="#84b4dc" fill-rule="evenodd"></path></g></svg>